<?xml version="1.0" encoding="utf-8"?>
<!-- Generator: Adobe Illustrator 23.0.3, SVG Export Plug-In . SVG Version: 6.00 Build 0)  -->
<svg version="1.1" id="Layer_1" xmlns="http://www.w3.org/2000/svg" xmlns:xlink="http://www.w3.org/1999/xlink" x="0px" y="0px"
	 viewBox="0 0 841.9 595.3" style="enable-background:new 0 0 841.9 595.3;" xml:space="preserve">
<style type="text/css">
	.st0{fill:#85D1F4;}
</style>
<g>
	
		<rect x="-223.4" y="303.1" transform="matrix(0.7071 0.7071 -0.7071 0.7071 330.0211 -146.1532)" class="st0" width="1129.8" height="44.3"/>
	
		<rect x="-278.9" y="358.6" transform="matrix(0.7071 0.7071 -0.7071 0.7071 352.9866 -90.7096)" class="st0" width="1129.8" height="44.3"/>
	
		<rect x="-112.6" y="192.2" transform="matrix(0.7071 0.7071 -0.7071 0.7071 284.0901 -257.0404)" class="st0" width="1129.8" height="44.3"/>
	
		<rect x="-168" y="247.7" transform="matrix(0.7071 0.7071 -0.7071 0.7071 307.0556 -201.5968)" class="st0" width="1129.8" height="44.3"/>
	
		<rect x="-334.3" y="414" transform="matrix(0.7071 0.7071 -0.7071 0.7071 375.9521 -35.266)" class="st0" width="1129.8" height="44.3"/>
	
		<rect x="53.8" y="25.9" transform="matrix(0.7071 0.7071 -0.7071 0.7071 215.1936 -423.3712)" class="st0" width="1129.8" height="44.3"/>
	
		<rect x="-1.7" y="81.4" transform="matrix(0.7071 0.7071 -0.7071 0.7071 238.1591 -367.9276)" class="st0" width="1129.8" height="44.3"/>
	
		<rect x="164.7" y="-85" transform="matrix(0.7071 0.7071 -0.7071 0.7071 169.2627 -534.2584)" class="st0" width="1129.8" height="44.3"/>
	
		<rect x="109.2" y="-29.5" transform="matrix(0.7071 0.7071 -0.7071 0.7071 192.2281 -478.8148)" class="st0" width="1129.8" height="44.3"/>
	
		<rect x="-57.1" y="136.8" transform="matrix(0.7071 0.7071 -0.7071 0.7071 261.1246 -312.484)" class="st0" width="1129.8" height="44.3"/>
	
		<rect x="-389.8" y="469.5" transform="matrix(0.7071 0.7071 -0.7071 0.7071 398.9175 20.1776)" class="st0" width="1129.8" height="44.3"/>
	
		<rect x="-445.2" y="524.9" transform="matrix(0.7071 0.7071 -0.7071 0.7071 421.883 75.6212)" class="st0" width="1129.8" height="44.3"/>
	
		<rect x="-500.7" y="580.4" transform="matrix(0.7071 0.7071 -0.7071 0.7071 444.8485 131.0648)" class="st0" width="1129.8" height="44.3"/>
</g>
</svg>
