<?xml version="1.0" encoding="utf-8"?>
<!-- Generator: Adobe Illustrator 23.0.3, SVG Export Plug-In . SVG Version: 6.00 Build 0)  -->
<svg version="1.1" id="Layer_1" xmlns="http://www.w3.org/2000/svg" xmlns:xlink="http://www.w3.org/1999/xlink" x="0px" y="0px"
	 viewBox="0 0 271.6 520.5" style="enable-background:new 0 0 271.6 520.5;" xml:space="preserve">
<style type="text/css">
	.st0{fill:#F2F1EF;}
</style>
<g>
	<g>
		<path class="st0" d="M97.2,37.6V25h7.9c0.9,0,1.6,0.6,1.6,1.6v2.9c0,0.9-0.8,1.5-1.6,1.5v0.3c0.9,0,1.6,0.6,1.6,1.5V36
			c0,0.9-0.6,1.6-1.6,1.6H97.2z M102.7,28.2h-1.6v1.4h1.6V28.2z M101.1,34.4h1.6v-1.7h-1.6V34.4z"/>
		<path class="st0" d="M107.9,37.6V25h8.4v1.6l-0.6,1.6h-3.9v1.4h3.9v3.2h-3.9v1.7h4.5v3.2H107.9z"/>
		<path class="st0" d="M116.9,34.4h1.2L120,25h7.6v9.5h1v3.2h-11.7V34.4z M123.6,28.1H123l-1,6.3h1.5V28.1z"/>
		<path class="st0" d="M131.3,37.6V36l0.5-1.4l-3.3-8V25h3.8l1,4.9h0.4l0.8-4.9h3.7v1.6l-3.4,11H131.3z"/>
		<path class="st0" d="M139.1,37.6V25h3.9v9.5h1.4V25h3.9v9.5h1.4V25h3.9v9.5h1v3.2H139.1z"/>
		<path class="st0" d="M161.2,25h3.9v12.6h-3.9V36l0.6-4h-0.3l-1.9,4.3v1.3h-3.9V25h3.9v1.6l-0.6,4h0.3l1.9-4.3V25z"/>
		<path class="st0" d="M172,25h3.9v12.6H172V36l0.6-4h-0.3l-1.9,4.3v1.3h-3.9V25h3.9v1.6l-0.6,4h0.3l1.8-4.3V25z M168.3,20.6h5.9
			v1.7l-0.5,1.3h-5.4V20.6z"/>
		<path class="st0" d="M54.4,66.4V49.6h10.5c1.2,0,2.1,0.9,2.1,2.1v3.9c0,1.2-1,2-2.2,2V58c1.2,0,2.2,0.8,2.2,2v4.2
			c0,1.2-0.9,2.1-2.1,2.1H54.4z M61.8,53.8h-2.1v1.9h2.1V53.8z M59.7,62.2h2.1v-2.3h-2.1V62.2z"/>
		<path class="st0" d="M76,66.4V53.8h-0.7l-2,12.6H68v-2.1l3.2-14.7h10.1v16.8H76z"/>
		<path class="st0" d="M93.7,49.6l2.4,14.7v2.1h-5.3L90.5,63h-2.3l-0.3,3.4h-5.2v-2.1L85,49.6H93.7z M90.1,58.8l-0.5-5h-0.6l-0.5,5
			H90.1z"/>
		<path class="st0" d="M96.8,62.2h1.6l2.6-12.6H111v12.6h1.4v4.2H96.8V62.2z M105.8,53.8H105l-1.3,8.4h2V53.8z"/>
		<path class="st0" d="M138,57.8v6.5c0,1.2-0.9,2.1-2.1,2.1h-10.5V49.6h12.5v2.1l-0.8,2.1h-6.4v1.9h5.3
			C137.1,55.7,138,56.6,138,57.8z M132.7,62.2v-2.3h-2.1v2.3H132.7z"/>
		<path class="st0" d="M139.6,66.4V49.6h11.2v2.1l-0.8,2.1h-5.2v1.9h5.2v4.2h-5.2v2.3h6v4.2H139.6z"/>
		<path class="st0" d="M157.6,61.2v5.2h-5.3V49.6h10.5c1.2,0,2.1,0.9,2.1,2.1v7.4c0,1.2-0.9,2.1-2.1,2.1H157.6z M157.6,57h2.1v-3.1
			h-2.1V57z"/>
		<path class="st0" d="M166.6,66.4V49.6h11.2v2.1l-0.8,2.1h-5.2v1.9h5.2v4.2h-5.2v2.3h6v4.2H166.6z"/>
		<path class="st0" d="M178.8,66.4v-4.2h6v-2.3h-3.2v-4.2h3.2v-1.9h-5.2l-0.8-2.1v-2.1h9.1c1.2,0,2.1,0.9,2.1,2.1v3.8
			c0,1.2-1,2-2.1,2V58c1.2,0,2.1,0.8,2.1,2v4.2c0,1.2-0.9,2.1-2.1,2.1H178.8z"/>
		<path class="st0" d="M199,49.6h5.2v16.8H199v-2.1l0.8-5.4h-0.4l-2.5,5.8v1.7h-5.2V49.6h5.2v2.1l-0.8,5.4h0.4l2.5-5.8V49.6z"/>
		<path class="st0" d="M213.5,55.7v-6.1h5.2v16.8h-5.2v-6.5h-2.1v6.5h-5.2V49.6h5.2v6.1H213.5z"/>
		<path class="st0" d="M98.2,122.5v3.9h-3.9v-12.6h7.9c0.9,0,1.6,0.6,1.6,1.6v5.5c0,0.9-0.6,1.6-1.6,1.6H98.2z M98.2,119.3h1.6V117
			h-1.6V119.3z"/>
		<path class="st0" d="M105,126.4v-12.6h8.4v1.6l-0.6,1.6h-3.9v1.4h3.9v3.2h-3.9v1.7h4.5v3.2H105z"/>
		<path class="st0" d="M125.1,113.8h3.7v1.6l-1.5,4.4l1.8,5.1v1.6h-3.9l-1.1-4.9h-0.5v4.9h-3.9v-4.9h-0.5l-1.1,4.9h-3.9v-1.6
			l1.8-5.1l-1.4-4.4v-1.6h3.7l1,4.6h0.5v-4.6h3.9v4.6h0.5L125.1,113.8z"/>
		<path class="st0" d="M135.8,113.8h3.9v12.6h-3.9v-1.6l0.6-4H136l-1.9,4.3v1.3h-3.9v-12.6h3.9v1.6l-0.6,4h0.3l1.9-4.3V113.8z"/>
		<path class="st0" d="M149.5,113.8v1.6l-0.6,1.6h-3.9v6.3h4.5v3.2h-6.8c-0.9,0-1.6-0.6-1.6-1.6v-9.5c0-0.9,0.6-1.6,1.6-1.6H149.5z"
			/>
		<path class="st0" d="M159,113.8v1.6l-0.6,1.6h-3.9v6.3h4.5v3.2h-6.8c-0.9,0-1.6-0.6-1.6-1.6v-9.5c0-0.9,0.6-1.6,1.6-1.6H159z"/>
		<path class="st0" d="M160.1,126.4v-12.6h8.4v1.6l-0.6,1.6H164v1.4h3.9v3.2H164v1.7h4.5v3.2H160.1z"/>
		<path class="st0" d="M173.6,122.5v3.9h-3.9v-12.6h7.9c0.9,0,1.6,0.6,1.6,1.6v5.5c0,0.9-0.6,1.6-1.6,1.6H173.6z M173.6,119.3h1.6
			V117h-1.6V119.3z"/>
		<path class="st0" d="M50.9,138.4l2.4,14.7v2.1H48l-0.3-3.4h-2.3l-0.3,3.4h-5.2v-2.1l2.4-14.7H50.9z M47.3,147.6l-0.5-5h-0.6
			l-0.5,5H47.3z"/>
		<path class="st0" d="M62,144.5v-6.1h5.2v16.8H62v-6.5h-2.1v6.5h-5.2v-16.8h5.2v6.1H62z"/>
		<path class="st0" d="M76.5,144.5v-6.1h5.2v16.8h-5.2v-6.5h-2.1v6.5h-5.2v-16.8h5.2v6.1H76.5z"/>
		<path class="st0" d="M94.3,138.4l2.4,14.7v2.1h-5.3l-0.3-3.4h-2.3l-0.3,3.4h-5.2v-2.1l2.4-14.7H94.3z M90.7,147.6l-0.5-5h-0.6
			l-0.5,5H90.7z"/>
		<path class="st0" d="M122.4,146.6v6.5c0,1.2-0.9,2.1-2.1,2.1h-10.5v-16.8h12.5v2.1l-0.8,2.1h-6.4v1.9h5.3
			C121.6,144.5,122.4,145.4,122.4,146.6z M117.2,151v-2.3h-2.1v2.3H117.2z"/>
		<path class="st0" d="M127.1,155.2v-2.1l0.7-1.9l-4.3-10.7v-2.1h5l1.3,6.6h0.6l1-6.6h4.9v2.1l-4.5,14.7H127.1z"/>
		<path class="st0" d="M136.9,155.2V151h6v-2.3h-3.2v-4.2h3.2v-1.9h-5.2l-0.8-2.1v-2.1h9.1c1.2,0,2.1,0.9,2.1,2.1v3.8
			c0,1.2-1,2-2.1,2v0.5c1.2,0,2.1,0.8,2.1,2v4.2c0,1.2-0.9,2.1-2.1,2.1H136.9z"/>
		<path class="st0" d="M157.2,138.4h5.2v16.8h-5.2v-2.1l0.8-5.4h-0.4l-2.5,5.8v1.7h-5.2v-16.8h5.2v2.1l-0.8,5.4h0.4l2.5-5.8V138.4z"
			/>
		<path class="st0" d="M171.7,144.5v-6.1h5.2v16.8h-5.2v-6.5h-2.1v6.5h-5.2v-16.8h5.2v6.1H171.7z"/>
		<path class="st0" d="M190.1,138.4v2.1l-0.8,2.1h-5.2v8.4h6v4.2h-9.1c-1.2,0-2.1-0.9-2.1-2.1v-12.6c0-1.2,0.9-2.1,2.1-2.1H190.1z"
			/>
		<path class="st0" d="M199,138.4h5v2.1l-1.9,5.8l2.4,6.8v2.1h-5.2l-1.4-6.5h-0.9v6.5h-5.3v-16.8h5.3v6.1h0.9L199,138.4z"/>
		<path class="st0" d="M213.1,138.4h5.2v16.8h-5.2v-2.1l0.8-5.4h-0.4l-2.5,5.8v1.7h-5.2v-16.8h5.2v2.1l-0.8,5.4h0.4l2.5-5.8V138.4z"
			/>
		<path class="st0" d="M227.6,138.4h5.3v16.8h-5.3v-2.1l0.8-5.4H228l-2.5,5.8v1.7h-5.3v-16.8h5.3v2.1l-0.8,5.4h0.4l2.4-5.8V138.4z
			 M222.6,132.5h7.9v2.3l-0.7,1.7h-7.2V132.5z"/>
		<path class="st0" d="M63,209.1h-0.3v6h-3.9v-1.6l1.3-11h4.4l1,5h0.3l1-5h4.4l1.3,11v1.6h-3.8v-6h-0.3l-1,6H64L63,209.1z"/>
		<path class="st0" d="M73.5,215.2v-12.6h8.4v1.6l-0.6,1.6h-3.9v1.4h3.9v3.2h-3.9v1.7h4.5v3.2H73.5z"/>
		<path class="st0" d="M88.5,207.2v-4.6h3.9v12.6h-3.9v-4.9h-1.6v4.9H83v-12.6h3.9v4.6H88.5z"/>
		<path class="st0" d="M93.9,215.2v-12.6h8.4v1.6l-0.6,1.6h-3.9v1.4h3.9v3.2h-3.9v1.7h4.5v3.2H93.9z"/>
		<path class="st0" d="M102.9,212h1.2l1.9-9.5h7.6v9.5h1v3.2h-11.7V212z M109.6,205.7H109l-1,6.3h1.5V205.7z"/>
		<path class="st0" d="M126.1,202.6h3.7v1.6l-1.5,4.4l1.8,5.1v1.6h-3.9l-1.1-4.9h-0.5v4.9h-3.9v-4.9h-0.5l-1.1,4.9h-3.9v-1.6
			l1.8-5.1l-1.4-4.4v-1.6h3.7l1,4.6h0.5v-4.6h3.9v4.6h0.5L126.1,202.6z"/>
		<path class="st0" d="M131.2,215.2v-12.6h8.4v1.6l-0.6,1.6h-3.9v1.4h3.9v3.2h-3.9v1.7h4.5v3.2H131.2z"/>
		<path class="st0" d="M144.7,211.3v3.9h-3.9v-12.6h7.9c0.9,0,1.6,0.6,1.6,1.6v5.5c0,0.9-0.6,1.6-1.6,1.6H144.7z M144.7,208.1h1.6
			v-2.4h-1.6V208.1z"/>
		<path class="st0" d="M168.3,204.2v9.4c0,0.9-0.6,1.6-1.6,1.6h-6.9V212h4.5v-1.7H162v-3.2h2.4v-1.4h-3.9l-0.6-1.6v-1.6h6.9
			C167.7,202.6,168.3,203.3,168.3,204.2z"/>
		<path class="st0" d="M169.2,205.8v-3.2h8.8v1.6l-0.6,1.6h-1.9v9.4h-3.9v-9.4H169.2z"/>
		<path class="st0" d="M186,202.6l1.8,11v1.6h-3.9l-0.2-2.5h-1.7l-0.3,2.5h-3.9v-1.6l1.8-11H186z M183.3,209.5l-0.4-3.7h-0.4
			l-0.4,3.7H183.3z"/>
		<path class="st0" d="M199.4,202.6h3.7v1.6l-1.5,4.4l1.8,5.1v1.6h-3.9l-1.1-4.9H198v4.9H194v-4.9h-0.5l-1.1,4.9h-3.9v-1.6l1.8-5.1
			l-1.4-4.4v-1.6h3.7l1,4.6h0.5v-4.6h3.9v4.6h0.5L199.4,202.6z"/>
		<path class="st0" d="M212.5,202.6l1.8,11v1.6h-3.9l-0.2-2.5h-1.7l-0.3,2.5h-3.9v-1.6l1.8-11H212.5z M209.8,209.5l-0.4-3.7H209
			l-0.4,3.7H209.8z"/>
		<path class="st0" d="M14,239.8h1.6l2.6-12.6h10.1v12.6h1.4v4.2H14V239.8z M22.9,231.4h-0.7l-1.3,8.4h2V231.4z"/>
		<path class="st0" d="M32.9,244c-1.2,0-2.1-0.9-2.1-2.1v-12.6c0-1.2,0.9-2.1,2.1-2.1h8.4c1.2,0,2.1,0.9,2.1,2.1v12.6
			c0,1.2-0.9,2.1-2.1,2.1H32.9z M36.1,231.4v8.4h2.1v-8.4H36.1z"/>
		<path class="st0" d="M50.4,235.9H50v8.1h-5.1v-2.1l1.7-14.7h5.9l1.3,6.6h0.4l1.3-6.6h5.9l1.7,14.7v2.1h-5.1v-8.1h-0.4l-1.3,8.1
			h-4.4L50.4,235.9z"/>
		<path class="st0" d="M71.7,227.2h5.2V244h-5.2v-2.1l0.8-5.4h-0.4l-2.5,5.8v1.7h-5.2v-16.8h5.2v2.1l-0.8,5.4h0.4l2.5-5.8V227.2z"/>
		<path class="st0" d="M86.2,233.3v-6.1h5.2V244h-5.2v-6.5h-2.1v6.5h-5.2v-16.8h5.2v6.1H86.2z"/>
		<path class="st0" d="M100.7,227.2h5.2V244h-5.2v-2.1l0.8-5.4H101l-2.5,5.8v1.7h-5.2v-16.8h5.2v2.1l-0.8,5.4h0.4l2.5-5.8V227.2z"/>
		<path class="st0" d="M115.3,227.2h5v2.1l-1.9,5.8l2.4,6.8v2.1h-5.2l-1.4-6.5h-0.9v6.5h-5.3v-16.8h5.3v6.1h0.9L115.3,227.2z"/>
		<path class="st0" d="M132.7,227.2l2.4,14.7v2.1h-5.3l-0.3-3.4h-2.3l-0.3,3.4h-5.2v-2.1l2.4-14.7H132.7z M129.1,236.4l-0.5-5h-0.6
			l-0.5,5H129.1z"/>
		<path class="st0" d="M153.5,244h-5.3v-16.8h11.2v2.1l-0.8,2.1h-5.2V244z"/>
		<path class="st0" d="M162.8,244c-1.2,0-2.1-0.9-2.1-2.1v-12.6c0-1.2,0.9-2.1,2.1-2.1h8.4c1.2,0,2.1,0.9,2.1,2.1v12.6
			c0,1.2-0.9,2.1-2.1,2.1H162.8z M166,231.4v8.4h2.1v-8.4H166z"/>
		<path class="st0" d="M180.5,238.8v5.2h-5.3v-16.8h10.5c1.2,0,2.1,0.9,2.1,2.1v7.4c0,1.2-0.9,2.1-2.1,2.1H180.5z M180.5,234.6h2.1
			v-3.1h-2.1V234.6z"/>
		<path class="st0" d="M202.1,235.4v6.5c0,1.2-0.9,2.1-2.1,2.1h-10.5v-16.8H202v2.1l-0.8,2.1h-6.4v1.9h5.3
			C201.2,233.3,202.1,234.2,202.1,235.4z M196.9,239.8v-2.3h-2.1v2.3H196.9z"/>
		<path class="st0" d="M206.7,244v-2.1l0.7-1.9l-4.3-10.7v-2.1h5l1.3,6.6h0.6l1-6.6h4.9v2.1l-4.5,14.7H206.7z"/>
		<path class="st0" d="M224.4,233.3v-6.1h5.2V244h-5.2v-6.5h-2.1v6.5h-5.2v-16.8h5.2v6.1H224.4z"/>
		<path class="st0" d="M233.7,244c-1.2,0-2.1-0.9-2.1-2.1v-12.6c0-1.2,0.9-2.1,2.1-2.1h8.4c1.2,0,2.1,0.9,2.1,2.1v12.6
			c0,1.2-0.9,2.1-2.1,2.1H233.7z M236.8,231.4v8.4h2.1v-8.4H236.8z"/>
		<path class="st0" d="M246.1,244v-16.8h10.5c1.2,0,2.1,0.9,2.1,2.1v3.9c0,1.2-1,2-2.2,2v0.5c1.2,0,2.2,0.8,2.2,2v4.2
			c0,1.2-0.9,2.1-2.1,2.1H246.1z M253.4,231.4h-2.1v1.9h2.1V231.4z M251.4,239.8h2.1v-2.3h-2.1V239.8z"/>
		<path class="st0" d="M97.7,304c-0.9,0-1.6-0.6-1.6-1.6V293c0-0.9,0.6-1.6,1.6-1.6h6.3c0.9,0,1.6,0.6,1.6,1.6v9.5
			c0,0.9-0.6,1.6-1.6,1.6H97.7z M100.1,294.6v6.3h1.6v-6.3H100.1z"/>
		<path class="st0" d="M107,304v-12.6h9.5V304h-3.9v-9.5H111v9.5H107z"/>
		<path class="st0" d="M117.9,304v-12.6h8.4v1.6l-0.6,1.6h-3.9v1.4h3.9v3.2h-3.9v1.7h4.5v3.2H117.9z"/>
		<path class="st0" d="M131.4,300.1v3.9h-3.9v-12.6h7.9c0.9,0,1.6,0.6,1.6,1.6v5.5c0,0.9-0.6,1.6-1.6,1.6H131.4z M131.4,296.9h1.6
			v-2.4h-1.6V296.9z"/>
		<path class="st0" d="M145.6,291.4l1.8,11v1.6h-3.9l-0.2-2.5h-1.7l-0.3,2.5h-3.9v-1.6l1.8-11H145.6z M142.9,298.3l-0.4-3.7h-0.4
			l-0.4,3.7H142.9z"/>
		<path class="st0" d="M147.1,294.6v-3.2h8.8v1.6l-0.6,1.6h-1.9v9.4h-3.9v-9.4H147.1z"/>
		<path class="st0" d="M158.4,304c-0.9,0-1.6-0.6-1.6-1.6V293c0-0.9,0.6-1.6,1.6-1.6h6.3c0.9,0,1.6,0.6,1.6,1.6v9.5
			c0,0.9-0.6,1.6-1.6,1.6H158.4z M160.8,294.6v6.3h1.6v-6.3H160.8z"/>
		<path class="st0" d="M171.7,300.1v3.9h-3.9v-12.6h7.9c0.9,0,1.6,0.6,1.6,1.6v5.5c0,0.9-0.6,1.6-1.6,1.6H171.7z M171.7,296.9h1.6
			v-2.4h-1.6V296.9z"/>
		<path class="st0" d="M31.9,332.8V316h10.5c1.2,0,2.1,0.9,2.1,2.1v3.9c0,1.2-1,2-2.2,2v0.5c1.2,0,2.2,0.8,2.2,2v4.2
			c0,1.2-0.9,2.1-2.1,2.1H31.9z M39.2,320.2h-2.1v1.9h2.1V320.2z M37.2,328.6h2.1v-2.3h-2.1V328.6z"/>
		<path class="st0" d="M46.2,332.8V316h11.2v2.1l-0.8,2.1h-5.2v1.9h5.2v4.2h-5.2v2.3h6v4.2H46.2z"/>
		<path class="st0" d="M64.1,327.6v5.2h-5.3V316h10.5c1.2,0,2.1,0.9,2.1,2.1v7.4c0,1.2-0.9,2.1-2.1,2.1H64.1z M64.1,323.4h2.1v-3.1
			h-2.1V323.4z"/>
		<path class="st0" d="M75.2,332.8c-1.2,0-2.1-0.9-2.1-2.1v-12.6c0-1.2,0.9-2.1,2.1-2.1h8.4c1.2,0,2.1,0.9,2.1,2.1v12.6
			c0,1.2-0.9,2.1-2.1,2.1H75.2z M78.4,320.2v8.4h2.1v-8.4H78.4z"/>
		<path class="st0" d="M95,322.1V316h5.2v16.8H95v-6.5h-2.1v6.5h-5.2V316h5.2v6.1H95z"/>
		<path class="st0" d="M109.5,316h5.2v16.8h-5.2v-2.1l0.8-5.4h-0.4l-2.5,5.8v1.7h-5.2V316h5.2v2.1l-0.8,5.4h0.4l2.5-5.8V316z"/>
		<path class="st0" d="M124.1,316h5v2.1l-1.9,5.8l2.4,6.8v2.1h-5.2l-1.4-6.5h-0.9v6.5h-5.3V316h5.3v6.1h0.9L124.1,316z"/>
		<path class="st0" d="M141.5,316l2.4,14.7v2.1h-5.3l-0.3-3.4H136l-0.3,3.4h-5.2v-2.1l2.4-14.7H141.5z M137.9,325.2l-0.5-5h-0.6
			l-0.5,5H137.9z"/>
		<path class="st0" d="M169.7,324.2v6.5c0,1.2-0.9,2.1-2.1,2.1h-10.5V316h12.5v2.1l-0.8,2.1h-6.4v1.9h5.3
			C168.8,322.1,169.7,323,169.7,324.2z M164.4,328.6v-2.3h-2.1v2.3H164.4z"/>
		<path class="st0" d="M173.5,332.8c-1.2,0-2.1-0.9-2.1-2.1v-12.6c0-1.2,0.9-2.1,2.1-2.1h8.4c1.2,0,2.1,0.9,2.1,2.1v12.6
			c0,1.2-0.9,2.1-2.1,2.1H173.5z M176.6,320.2v8.4h2.1v-8.4H176.6z"/>
		<path class="st0" d="M198.4,324.2v6.5c0,1.2-0.9,2.1-2.1,2.1h-10.5V316h12.5v2.1l-0.8,2.1h-6.4v1.9h5.3
			C197.6,322.1,198.4,323,198.4,324.2z M193.2,328.6v-2.3h-2.1v2.3H193.2z"/>
		<path class="st0" d="M207.6,316h5v2.1l-1.9,5.8l2.4,6.8v2.1h-5.2l-1.4-6.5h-0.9v6.5h-5.3V316h5.3v6.1h0.9L207.6,316z"/>
		<path class="st0" d="M216.5,332.8c-1.2,0-2.1-0.9-2.1-2.1v-12.6c0-1.2,0.9-2.1,2.1-2.1h8.4c1.2,0,2.1,0.9,2.1,2.1v12.6
			c0,1.2-0.9,2.1-2.1,2.1H216.5z M219.6,320.2v8.4h2.1v-8.4H219.6z"/>
		<path class="st0" d="M228.9,332.8V316h10.5c1.2,0,2.1,0.9,2.1,2.1v3.9c0,1.2-1,2-2.2,2v0.5c1.2,0,2.2,0.8,2.2,2v4.2
			c0,1.2-0.9,2.1-2.1,2.1H228.9z M236.3,320.2h-2.1v1.9h2.1V320.2z M234.2,328.6h2.1v-2.3h-2.1V328.6z"/>
		<path class="st0" d="M68.1,392.8v-3.2h4.5v-1.7h-2.4v-3.2h2.4v-1.4h-3.9l-0.6-1.6v-1.6H75c0.9,0,1.6,0.7,1.6,1.6v2.9
			c0,0.9-0.7,1.5-1.6,1.5v0.3c0.9,0,1.6,0.6,1.6,1.5v3.2c0,0.9-0.6,1.6-1.6,1.6H68.1z"/>
		<path class="st0" d="M77.8,392.8v-12.6h7.9c0.9,0,1.6,0.6,1.6,1.6v2.9c0,0.9-0.8,1.5-1.6,1.5v0.3c0.9,0,1.6,0.6,1.6,1.5v3.2
			c0,0.9-0.6,1.6-1.6,1.6H77.8z M83.3,383.4h-1.6v1.4h1.6V383.4z M81.7,389.6h1.6v-1.7h-1.6V389.6z"/>
		<path class="st0" d="M90.7,392.8v-1.6l0.5-1.4l-3.3-8v-1.6h3.8l1,4.9h0.4l0.8-4.9h3.7v1.6l-3.4,11H90.7z"/>
		<path class="st0" d="M104.1,380.2h3.7v1.6l-1.5,4.4l1.8,5.1v1.6h-3.9l-1.1-4.9h-0.7v4.9h-3.9v-12.6h3.9v4.6h0.7L104.1,380.2z"/>
		<path class="st0" d="M110.8,392.8c-0.9,0-1.6-0.6-1.6-1.6v-9.5c0-0.9,0.6-1.6,1.6-1.6h6.3c0.9,0,1.6,0.6,1.6,1.6v9.5
			c0,0.9-0.6,1.6-1.6,1.6H110.8z M113.1,383.4v6.3h1.6v-6.3H113.1z"/>
		<path class="st0" d="M124,388.9v3.9h-3.9v-12.6h7.9c0.9,0,1.6,0.6,1.6,1.6v5.5c0,0.9-0.6,1.6-1.6,1.6H124z M124,385.7h1.6v-2.4
			H124V385.7z"/>
		<path class="st0" d="M130.8,392.8v-12.6h8.4v1.6l-0.6,1.6h-3.9v1.4h3.9v3.2h-3.9v1.7h4.5v3.2H130.8z"/>
		<path class="st0" d="M150.9,380.2h3.7v1.6l-1.5,4.4l1.8,5.1v1.6H151l-1.1-4.9h-0.5v4.9h-3.9v-4.9h-0.5l-1.1,4.9h-3.9v-1.6l1.8-5.1
			l-1.4-4.4v-1.6h3.7l1,4.6h0.5v-4.6h3.9v4.6h0.5L150.9,380.2z"/>
		<path class="st0" d="M161.6,380.2h3.9v12.6h-3.9v-1.6l0.6-4h-0.3l-1.9,4.3v1.3H156v-12.6h3.9v1.6l-0.6,4h0.3l1.9-4.3V380.2z"/>
		<path class="st0" d="M175.3,380.2v1.6l-0.6,1.6h-3.9v6.3h4.5v3.2h-6.8c-0.9,0-1.6-0.6-1.6-1.6v-9.5c0-0.9,0.6-1.6,1.6-1.6H175.3z"
			/>
		<path class="st0" d="M184.8,380.2v1.6l-0.6,1.6h-3.9v6.3h4.5v3.2H178c-0.9,0-1.6-0.6-1.6-1.6v-9.5c0-0.9,0.6-1.6,1.6-1.6H184.8z"
			/>
		<path class="st0" d="M185.9,392.8v-12.6h8.4v1.6l-0.6,1.6h-3.9v1.4h3.9v3.2h-3.9v1.7h4.5v3.2H185.9z"/>
		<path class="st0" d="M199.4,388.9v3.9h-3.9v-12.6h7.9c0.9,0,1.6,0.6,1.6,1.6v5.5c0,0.9-0.6,1.6-1.6,1.6H199.4z M199.4,385.7h1.6
			v-2.4h-1.6V385.7z"/>
		<path class="st0" d="M52.5,421.6v-16.8H63c1.2,0,2.1,0.9,2.1,2.1v3.9c0,1.2-1,2-2.2,2v0.5c1.2,0,2.2,0.8,2.2,2v4.2
			c0,1.2-0.9,2.1-2.1,2.1H52.5z M59.9,409h-2.1v1.9h2.1V409z M57.8,417.4h2.1v-2.3h-2.1V417.4z"/>
		<path class="st0" d="M68.9,421.6c-1.2,0-2.1-0.9-2.1-2.1v-12.6c0-1.2,0.9-2.1,2.1-2.1h8.4c1.2,0,2.1,0.9,2.1,2.1v12.6
			c0,1.2-0.9,2.1-2.1,2.1H68.9z M72.1,409v8.4h2.1V409H72.1z"/>
		<path class="st0" d="M81.3,421.6v-16.8h10.5c1.2,0,2.1,0.9,2.1,2.1v3.9c0,1.2-1,2-2.2,2v0.5c1.2,0,2.2,0.8,2.2,2v4.2
			c0,1.2-0.9,2.1-2.1,2.1H81.3z M88.7,409h-2.1v1.9h2.1V409z M86.6,417.4h2.1v-2.3h-2.1V417.4z"/>
		<path class="st0" d="M106.6,421.6v-4.2h3v-12.6h5.2v14.7c0,1.2-0.9,2.1-2.1,2.1H106.6z"/>
		<path class="st0" d="M116.8,421.6v-16.8h11.2v2.1l-0.8,2.1h-5.2v1.9h5.2v4.2h-5.2v2.3h6v4.2H116.8z"/>
		<path class="st0" d="M134.8,421.6h-5.3v-16.8h11.2v2.1l-0.8,2.1h-5.2v2.7h5.2v4.2h-5.2V421.6z"/>
		<path class="st0" d="M147.2,421.6h-5.3v-16.8h11.2v2.1l-0.8,2.1h-5.2v2.7h5.2v4.2h-5.2V421.6z"/>
		<path class="st0" d="M154.4,421.6v-16.8h11.2v2.1l-0.8,2.1h-5.2v1.9h5.2v4.2h-5.2v2.3h6v4.2H154.4z"/>
		<path class="st0" d="M177.6,404.8c1.2,0,2.1,0.9,2.1,2.1v6.6c0,0.8-0.6,1.7-1.4,1.9l1.7,4.1v2.1h-5.1l-1.4-5.2h-1.1v5.2H167v-16.8
			H177.6z M172.3,409v3.1h2.1V409H172.3z"/>
		<path class="st0" d="M180.9,410.4v-3.5c0-1.2,0.9-2.1,2.1-2.1h9.1v2.1l-0.8,2.2h-5.2v0.8l4.6,3c1.2,0.8,1.4,1.5,1.4,2.9v3.8
			c0,1.2-0.9,2.1-2.1,2.1h-9.1v-4.2h6v-1.1l-4.6-3C181.1,412.5,180.9,411.8,180.9,410.4z"/>
		<path class="st0" d="M195.6,421.6c-1.2,0-2.1-0.9-2.1-2.1v-12.6c0-1.2,0.9-2.1,2.1-2.1h8.4c1.2,0,2.1,0.9,2.1,2.1v12.6
			c0,1.2-0.9,2.1-2.1,2.1H195.6z M198.8,409v8.4h2.1V409H198.8z"/>
		<path class="st0" d="M216.5,412.6l-0.7-5.7v-2.1h4.8v16.8h-5.6l-2.5-7.8h-0.4l0.7,5.7v2.1h-4.8v-16.8h5.6l2.4,7.8H216.5z"/>
		<path class="st0" d="M34.8,481.6h-3.9V469h8.4v1.6l-0.6,1.6h-3.9V481.6z"/>
		<path class="st0" d="M44.1,477.7v3.9h-3.9V469h7.9c0.9,0,1.6,0.6,1.6,1.6v5.5c0,0.9-0.6,1.6-1.6,1.6H44.1z M44.1,474.5h1.6v-2.4
			h-1.6V474.5z"/>
		<path class="st0" d="M58.3,469l1.8,11v1.6h-3.9l-0.2-2.5h-1.7l-0.3,2.5H50V480l1.8-11H58.3z M55.6,475.9l-0.4-3.7h-0.4l-0.4,3.7
			H55.6z"/>
		<path class="st0" d="M66.3,480.2h-3.8c-0.9,0-1.6-0.6-1.6-1.6v-7c0-0.9,0.6-1.6,1.6-1.6h3.8V469h3.9v1.1H74c0.9,0,1.6,0.6,1.6,1.6
			v7c0,0.9-0.6,1.6-1.6,1.6h-3.8v1.4h-3.9V480.2z M64.9,473.3v3.8h1.4v-3.8H64.9z M71.7,477.1v-3.8h-1.4v3.8H71.7z"/>
		<path class="st0" d="M82.4,469h3.9v12.6h-3.9V480l0.6-4h-0.3l-1.9,4.3v1.3h-3.9V469h3.9v1.6l-0.6,4h0.3l1.9-4.3V469z"/>
		<path class="st0" d="M87.6,475.8V469h3.9v5.2h1.6V469H97v12.6h-3.9v-4.2h-3.9C88.2,477.4,87.6,476.7,87.6,475.8z"/>
		<path class="st0" d="M98.4,481.6V469h8.4v1.6l-0.6,1.6h-3.9v1.4h3.9v3.2h-3.9v1.7h4.5v3.2H98.4z"/>
		<path class="st0" d="M116.4,469v1.6l-0.6,1.6h-3.9v6.3h4.5v3.2h-6.8c-0.9,0-1.6-0.6-1.6-1.6v-9.5c0-0.9,0.6-1.6,1.6-1.6H116.4z"/>
		<path class="st0" d="M123,469h3.7v1.6l-1.5,4.4l1.8,5.1v1.6h-3.9l-1.1-4.9h-0.7v4.9h-3.9V469h3.9v4.6h0.7L123,469z"/>
		<path class="st0" d="M133.7,469h3.9v12.6h-3.9V480l0.6-4h-0.3l-1.9,4.3v1.3h-3.9V469h3.9v1.6l-0.6,4h0.3l1.9-4.3V469z"/>
		<path class="st0" d="M144.5,469h3.9v12.6h-3.9V480l0.6-4h-0.3l-1.9,4.3v1.3H139V469h3.9v1.6l-0.6,4h0.3l1.8-4.3V469z M140.8,464.6
			h5.9v1.7l-0.5,1.3h-5.4V464.6z"/>
		<path class="st0" d="M158.2,478.4h1.2l1.9-9.5h7.6v9.5h1v3.2h-11.7V478.4z M164.9,472.1h-0.6l-1,6.3h1.5V472.1z"/>
		<path class="st0" d="M176.3,469h3.9v12.6h-3.9V480l0.6-4h-0.3l-1.9,4.3v1.3h-3.9V469h3.9v1.6l-0.6,4h0.3l1.9-4.3V469z"/>
		<path class="st0" d="M181.3,481.6v-3.2h4.5v-1.7h-2.4v-3.2h2.4v-1.4h-3.9l-0.6-1.6V469h6.8c0.9,0,1.6,0.7,1.6,1.6v2.9
			c0,0.9-0.7,1.5-1.6,1.5v0.3c0.9,0,1.6,0.6,1.6,1.5v3.2c0,0.9-0.6,1.6-1.6,1.6H181.3z"/>
		<path class="st0" d="M198.9,469l1.8,11v1.6h-3.9l-0.2-2.5h-1.7l-0.3,2.5h-3.9V480l1.8-11H198.9z M196.2,475.9l-0.4-3.7h-0.4
			l-0.4,3.7H196.2z"/>
		<path class="st0" d="M207.3,469h3.9v12.6h-3.9V480l0.6-4h-0.3l-1.9,4.3v1.3h-3.9V469h3.9v1.6l-0.6,4h0.3l1.8-4.3V469z
			 M203.5,464.6h5.9v1.7l-0.5,1.3h-5.4V464.6z"/>
		<path class="st0" d="M218.2,473.6V469h3.9v12.6h-3.9v-4.9h-1.6v4.9h-3.9V469h3.9v4.6H218.2z"/>
		<path class="st0" d="M223.5,481.6V469h8.4v1.6l-0.6,1.6h-3.9v1.4h3.9v3.2h-3.9v1.7h4.5v3.2H223.5z"/>
		<path class="st0" d="M237,477.7v3.9H233V469h7.9c0.9,0,1.6,0.6,1.6,1.6v5.5c0,0.9-0.6,1.6-1.6,1.6H237z M237,474.5h1.6v-2.4H237
			V474.5z"/>
		<path class="st0" d="M67.7,510.4v-16.8h10.5c1.2,0,2.1,0.9,2.1,2.1v12.6c0,1.2-0.9,2.1-2.1,2.1H67.7z M72.9,506.2H75v-8.4h-2.1
			V506.2z"/>
		<path class="st0" d="M84.3,510.4c-1.2,0-2.1-0.9-2.1-2.1v-12.6c0-1.2,0.9-2.1,2.1-2.1h8.4c1.2,0,2.1,0.9,2.1,2.1v12.6
			c0,1.2-0.9,2.1-2.1,2.1H84.3z M87.4,497.8v8.4h2.1v-8.4H87.4z"/>
		<path class="st0" d="M101.8,502.3h-0.4v8.1h-5.1v-2.1l1.7-14.7h5.9l1.3,6.6h0.4l1.3-6.6h5.9l1.7,14.7v2.1h-5.1v-8.1h-0.4l-1.3,8.1
			h-4.4L101.8,502.3z"/>
		<path class="st0" d="M138.7,493.6v2.1l-0.8,2.1h-5.2v8.4h6v4.2h-9.1c-1.2,0-2.1-0.9-2.1-2.1v-12.6c0-1.2,0.9-2.1,2.1-2.1H138.7z"
			/>
		<path class="st0" d="M150.8,493.6l2.4,14.7v2.1h-5.3l-0.3-3.4h-2.3l-0.3,3.4h-5.2v-2.1l2.4-14.7H150.8z M147.2,502.8l-0.5-5h-0.6
			l-0.5,5H147.2z"/>
		<path class="st0" d="M154.1,499.2v-3.5c0-1.2,0.9-2.1,2.1-2.1h9.1v2.1l-0.8,2.2h-5.2v0.8l4.6,3c1.2,0.8,1.4,1.5,1.4,2.9v3.8
			c0,1.2-0.9,2.1-2.1,2.1h-9.1v-4.2h6v-1.1l-4.6-3C154.4,501.3,154.1,500.6,154.1,499.2z"/>
		<path class="st0" d="M179.4,493.6v16.8h-10.5c-1.2,0-2.1-0.9-2.1-2.1v-14.7h5.3v12.6h2.1v-12.6H179.4z"/>
		<path class="st0" d="M191.9,493.6l2.4,14.7v2.1H189l-0.3-3.4h-2.3l-0.3,3.4h-5.2v-2.1l2.4-14.7H191.9z M188.3,502.8l-0.5-5h-0.6
			l-0.5,5H188.3z"/>
		<path class="st0" d="M195.7,493.6h5.2v12.6h5.3v4.2h-10.5V493.6z"/>
	</g>
</g>
</svg>
