<?xml version="1.0" encoding="utf-8"?>
<!-- Generator: Adobe Illustrator 23.0.3, SVG Export Plug-In . SVG Version: 6.00 Build 0)  -->
<svg version="1.1" id="Layer_1" xmlns="http://www.w3.org/2000/svg" xmlns:xlink="http://www.w3.org/1999/xlink" x="0px" y="0px"
	 viewBox="0 0 437.5 194.3" style="enable-background:new 0 0 437.5 194.3;" xml:space="preserve">
<style type="text/css">
	.st0{fill:#212121;}
</style>
<path class="st0" d="M80.9,106.1c-0.2,5.7-0.4,11.3-0.6,17c-0.2,7.2-0.3,14.5-0.5,21.7c-0.2,6.7-0.4,13.3-0.6,20
	c-0.1,3.1-0.2,6.1-0.3,9.2c0,0.9-0.3,1.4-1.3,1.4c-5.4-0.1-10.8-0.2-16.2-0.4c-1,0-1.6-0.5-1.5-1.7c0.2-2.3,0.2-4.6,0.3-6.9
	c0-0.3,0-0.7-0.1-1.3c-1.3,1.4-2.3,2.7-3.5,3.8c-5.3,5-11.7,7.3-19,7.1c-4.1-0.1-8.2-0.7-12.1-2.3c-3-1.2-5.7-2.9-7.7-5.5
	c-0.6-0.7-1-1.7-1.1-2.6c-0.5-9.6-1-19.2-1.5-28.9c-0.5-9.6-0.9-19.1-1.3-28.7c-0.1-1.6,0-3.3,0-4.9c0-0.6,0.3-0.9,1-0.9
	c5.8,0.2,11.6,0.3,17.4,0.5c1,0,1.1,0.6,1.1,1.4c-0.2,5.5-0.3,11-0.5,16.5c-0.2,5.4-0.3,10.9-0.5,16.3c-0.1,3-0.3,6-0.1,9
	c0.1,2.3,0.5,4.5,1,6.7c1.1,4.5,4.2,7.1,8.8,7.7c3.4,0.5,6.8,0.4,10-1.2c2.5-1.2,4.3-3.1,5.5-5.6c2.1-4.3,2.4-8.8,2.5-13.4
	c0.3-8.8,0.5-17.7,0.8-26.5c0.1-3,0.2-5.9,0.3-8.9c0-1,0.4-1.2,1.3-1.2c5.6,0.2,11.2,0.4,16.7,0.5C80.9,104.4,81,104.4,80.9,106.1z
	 M152.6,149c-1.7-5.2-5.3-8.6-10.1-10.9c-5.2-2.6-10.9-3.7-16.4-5.2c-4-1.1-8.1-2.2-12-3.6c-2.2-0.7-4.1-2.1-4.8-4.5
	c-1-3.4,0.8-6.5,4.4-7.4c3.9-1,7.9-1,11.8,0.1c1.3,0.4,2.7,1,3.8,1.7c2.1,1.4,3.2,3.5,3.5,6c0.1,1.1,0.6,1.6,1.8,1.6
	c2,0,4.1,0.1,6.1,0.2c3.2,0.1,6.4,0.2,9.6,0.3c1.4,0,1.7-0.2,1.5-1.6c-0.2-1.5-0.4-2.9-0.8-4.4c-1-3.9-3-7.3-6-10.1
	c-4.3-3.9-9.5-5.7-15-6.6c-4.5-0.7-9.1-0.9-13.6-0.9c-6,0.1-12,1.1-17.4,4.2c-3,1.7-5.3,4-7,7c-2.2,4.1-3.1,8.5-2.7,13.1
	c0.7,6.7,4.9,10.7,10.6,13.5c5.8,2.8,12.1,4.1,18.3,5.6c4,1,7.9,2.1,11.6,4.2c2.5,1.4,3.8,4.1,3.4,6.6c-0.6,3-2.4,5.1-5.2,6.2
	c-4.5,1.9-9.1,1.8-13.7,0.4c-2.8-0.8-5.1-2.3-6.8-4.8c-1.1-1.6-1.6-3.3-1.7-5.1c-0.1-1.1-0.5-1.6-1.7-1.6c-1.6,0-3.2-0.1-4.8-0.2
	c-3.6-0.1-7.3-0.2-10.9-0.3c-1.1,0-1.4,0.4-1.3,1.4c0.1,0.7,0.1,1.4,0.2,2.2c0.6,4.7,2.2,8.9,5.4,12.4c2.1,2.3,4.5,4.2,7.2,5.6
	c3.3,1.7,6.8,2.9,10.4,3.4c3.7,0.5,7.4,0.4,11.1,0.5c0-0.1,0-0.1,0-0.2c0.9,0,1.8,0,2.8,0c6,0,11.9-0.4,17.3-3.4
	c4.2-2.3,7.4-5.4,9.5-9.6c2-4,2.4-8.2,2.3-12.6C153,151.1,152.9,150,152.6,149z M311.8,140.9c0,3,0.1,6-0.1,9c-0.3,4-0.9,8-2.6,11.6
	c-2.3,5.3-5.4,10.1-10.4,13.4c-1.5,1-3,1.6-4.9,1.6c-6.5-0.1-13,0-19.4,0c0,0.1,0,0.1,0,0.2c-6.7,0-13.4-0.1-20,0
	c-1.9,0-3.1-1.1-4.4-2.2c-4.7-4.1-8.1-9.2-10.1-15.2c-1.4-4.5-2.3-9.1-2.2-13.8c0-5.8,1-11.6,3.3-16.9c3-7,7.6-12.7,14.4-16.4
	c5.2-2.8,10.7-4.2,16.6-4.5c5-0.2,9.8,0.2,14.6,1.5c4.6,1.3,8.7,3.4,12.5,6.4c4,3.2,7.1,7.1,9.3,11.7
	C310.5,131.6,311.9,136.1,311.8,140.9z M292.4,144.4c-0.3-2.3-0.4-4.7-0.8-7c-0.5-3.3-1.7-6.4-3.7-9c-2-2.7-4.8-4.6-8.1-5.3
	c-4.5-1-8.8-0.9-12.9,1.4c-3.7,2.1-5.9,5.5-7.2,9.5c-2.8,8.2-2.8,16.3,0.3,24.3c1.3,3.4,3.7,6.1,6.8,7.8c2.2,1.2,4.7,1.7,7.3,1.8
	c7,0.3,12.4-2.9,15.4-9.2C291.6,154.2,292.2,149.4,292.4,144.4z M392.4,146.1c0.3,4.1-0.3,8.2-1.1,12.2c-1.2,5.8-4,10.9-7.9,15.3
	c-1.1,1.2-2.3,1.9-4,1.9c-15.7,0.1-31.4,0.2-47.1,0.4c-2.2,0-3.5-0.8-4.6-2.3c-2.2-2.7-4.2-5.5-5.7-8.7c-1.8-4-2.6-8.2-3.2-12.6
	c-0.8-6.2-0.1-12.2,1.7-18.1c2.3-7.8,6.6-14.2,13.5-18.7c5.3-3.5,11.2-5.3,17.4-5.7c4.7-0.3,9.3,0,13.9,1c5.1,1.2,9.7,3.3,13.9,6.4
	c3.5,2.6,6.2,5.8,8.4,9.5c2.7,4.4,4,9.3,4.8,14.3C392.6,142.8,392.4,144.5,392.4,146.1z M372.7,146.8c0-4.2-0.5-7.6-1.7-11
	c-1.2-3.5-3.2-6.5-6.3-8.6c-2.2-1.4-4.6-2.1-7.2-2.3c-3.9-0.4-7.6,0.1-10.9,2.3c-3.3,2.2-5.3,5.4-6.5,9.1c-0.4,1.2-0.8,2.5-1,3.8
	c-0.4,2.5-0.9,4.9-1,7.4c-0.1,3.9,0.4,7.8,1.8,11.6c1.3,3.5,3.2,6.5,6.5,8.6c3,1.9,6.3,2.4,9.8,2.4c7.5,0,12.5-5.2,14.6-11.2
	C372.3,154.7,372.9,150.5,372.7,146.8z M234.4,108.4c-3.9-0.1-7.7-0.3-11.6-0.4c-1.5-0.1-1.5-0.2-1.5-1.6c0.1-1,0.1-2.1,0.1-3.1
	c0.1-5,0.2-10.1,0.4-15.1c0-1.2-0.4-1.5-1.5-1.5c-5.7-0.1-11.4-0.3-17.1-0.5c-1,0-1.1,0.5-1.1,1.3c-0.1,5.8-0.3,11.6-0.5,17.4
	c0,0.8-0.1,1.6-0.2,2.6c-0.6,0-1.1,0-1.6,0c-2.9-0.1-5.8-0.1-8.7-0.2c-1,0-1.4,0.3-1.4,1.3c-0.1,3.4-0.2,6.9-0.3,10.3
	c-0.1,1.1,0.3,1.6,1.5,1.6c3,0,6,0.2,9,0.2c1,0,1.4,0.4,1.4,1.4c-0.1,1.3-0.1,2.6-0.1,3.9c-0.1,5-0.2,9.9-0.4,14.9
	c-0.2,7.9-0.6,15.8-0.6,23.7c0,4.3,1.3,8.3,4.8,11.2c0.8,0.6,1.9,1.2,2.9,1.2c8.3,0,16.6-0.1,24.8-0.2c0.9,0,1.3-0.3,1.4-1.2
	c0.2-3.1,0.3-6.2,0.5-9.3c0.1-1.4-0.3-1.5-1.6-1.5c-2.5,0.1-5,0.2-7.5,0c-3.1-0.3-4.8-2.1-5-5c-0.1-0.9-0.1-1.9-0.1-2.9
	c0-3.9,0.1-7.8,0.2-11.7c0.1-2.9,0.3-5.9,0.4-8.8c0.1-4.9,0.2-9.9,0.3-15c0.6-0.1,1-0.1,1.4-0.1c3.9,0.1,7.7,0.2,11.6,0.3
	c1,0,1.4-0.3,1.4-1.3c0-3.5,0.2-7,0.3-10.5C235.7,108.7,235.3,108.5,234.4,108.4z M423.6,86.6c-3,0-5.9,0-8.9,0c0-0.1,0-0.3,0-0.4
	c-2.9,0-5.8,0-8.7,0c-0.9,0-1.4,0.2-1.4,1.2c0,1.8,0,3.7-0.1,5.5c-0.2,6.6-0.5,13.2-0.5,19.9c0,2.5,0.4,5,0.6,7.5
	c0.5,4.9,0.9,9.9,1.4,14.8c0.2,2.4,0.6,4.8,0.8,7.3c0.4,3.9,0.7,7.8,1,11.7c0.1,0.8,0.5,1.2,1.3,1.2c2.5,0,5,0.1,7.5,0.2
	c0.8,0,1.2-0.3,1.3-1.1c0.3-1.9,0.6-3.9,0.9-5.8c0.7-4.6,1.5-9.1,2.2-13.7c0.7-4.6,1.3-9.1,1.9-13.7c0.4-2.8,1.1-5.5,1.2-8.3
	c0.4-8.2,0.5-16.5,0.8-24.7C424.9,87,424.6,86.6,423.6,86.6z M234.7,64.1c3.7,0.8,7.4,0.5,10.6-2c0.6-0.5,1.2-1,2-1.7
	c0,0.9,0,1.6,0,2.3c0,0.8,0.3,1.3,1.1,1.3c1.8,0,3.7,0,5.5,0c1.7,0,1.7,0.1,1.8-1.7c0.2-5.7,0.3-11.3,0.4-17
	c-2.2-0.2-4.5-0.3-6.7-0.6c-1.7-0.2-1.8-0.1-1.9,1.6c-0.1,2.1-0.2,4.2-0.7,6.2c-0.6,2.5-1.9,4.6-4.7,5.2c-2.8,0.6-5.3,0.2-7.3-2.2
	c-1.3-1.5-1.9-3.3-2.2-5.2c-0.5-3.6-0.1-7.1,2.1-10.1c2.9-4,9.7-3.3,11.6,1.3c0.8,1.9,1.8,2.4,3.7,2.3c0.9-0.1,1.9,0,2.9,0
	c1.1,0,2.1,0,3.4,0c0-2.5,0-4.8,0-7c0.1-4.2,0.2-8.3,0.3-12.5c0-0.4-0.4-1.1-0.6-1.1c-2.6-0.1-5.2-0.1-8-0.1c-0.1,4-0.3,8-0.4,12.4
	c-1.1-1-1.7-2-2.6-2.5c-3.8-2.3-7.9-2.8-12.1-1.2c-4.1,1.6-6.5,4.7-8,8.7c-0.7,1.9-0.7,1.9,0.7,3c0,0.1,0,0.2-0.1,0.2
	c-0.1,0.1-0.2,0.2-0.3,0.2c-1.4,0.1-1.5,1-1.5,2.1c-0.1,2.5,0,4.9,0.7,7.4C226,58.8,229,62.8,234.7,64.1z M32.4,57.9
	c1.4,0,2.9,0.1,4.3,0.1c3.5,0,3,0.8,3.2-3.2c0.3-5,0.3-10,0.5-15c0.1-2,0.5-4,1.9-5.6c1.7-1.9,3.9-1.9,6.2-1.6
	c1.5,0.2,2.6,1,3.1,2.4c0.5,1.3,0.9,2.6,0.9,3.9C52.4,45,52.2,50.9,52,56.9c0,1.5,0,1.6,1.5,1.6c1.9,0.1,3.8,0.1,5.7,0.2
	c1.2,0.1,1.6-0.3,1.6-1.5c0.1-4.7,0.3-9.4,0.4-14.1c0-3.1,0.1-6.2-0.2-9.3c-0.5-4.4-3.3-6.9-7.5-7.8c-3.6-0.8-7.1-0.6-10.1,1.8
	c-0.9,0.7-1.8,1.6-2.6,2.3c0-2.1,0-4.2,0-6.4c0.1-2.6,0.2-5.1,0.2-7.7c0-0.4-0.4-1-0.6-1.1c-2.6-0.1-5.2,0-8.2,0c0,1.9,0,3.8,0,5.8
	c-0.2,6.5-0.4,13-0.6,19.5c-0.2,5.5-0.3,10.9-0.5,16.4C31,57.6,31.5,57.9,32.4,57.9z M91.8,56.2c-4.4,4.2-9.7,4.6-15.3,3.4
	c-7.3-1.7-11.3-7.7-11.6-14.8c-0.2-3.8,0.4-7.5,2.4-10.8c2.7-4.4,6.7-6.8,11.8-7.4c3.4-0.4,6.7,0.1,9.7,1.9
	c4.1,2.4,6.3,6.1,7.2,10.7c0.3,1.7,0.3,3.5,0.5,5.2c0.1,1.1-0.3,1.5-1.4,1.4c-5.9-0.2-11.8-0.3-17.7-0.5c-1.2,0-2.3,0-3.6,0
	c0.1,3,0.7,5.6,3.2,7.1c2.1,1.3,4.5,1.4,6.8,0.7c1.7-0.5,3.1-1.4,4.1-2.9c0.2-0.3,0.7-0.6,1-0.6c2.1-0.1,4.3,0,6.5,0
	C95.1,52.5,93.6,54.5,91.8,56.2z M75.3,39.7c1.9,0,3.8,0,5.6,0c0,0.1,0,0.2,0,0.4c1.9,0,3.8,0,5.6,0c1,0,1.3-0.2,1.1-1.2
	c-0.9-4.1-3.3-5.8-7.6-5.6c-2.9,0.2-5.2,2.5-5.8,4.9C73.8,39.3,74,39.6,75.3,39.7z M179.5,59.3c-3.1-2.7-4.5-6.2-5-10.2
	c-0.5-4.4,0.2-8.6,2.5-12.4c1.6-2.7,4-4.7,6.9-5.9c5.6-2.2,11-1.9,15.9,1.8c3.9,2.9,5.5,7.2,6,12c0.1,0.9,0.1,1.8,0.1,2.8
	c0,1.4-0.1,1.6-1.6,1.6c-4.3-0.1-8.5-0.2-12.8-0.4c-2.5-0.1-4.9-0.1-7.4-0.2c-0.3,0-0.6,0-0.9,0.1c-0.1,4,1.8,7,4.9,7.9
	c3.1,0.8,7,0.1,9.2-3.1c0.2-0.3,0.7-0.6,1-0.6c2,0,3.9,0.1,5.9,0.2c0.9,0,0.9,0.4,0.6,1.2c-2.2,5.5-6.2,8.5-12.1,9.1
	C187.8,63.6,183.3,62.6,179.5,59.3z M184.4,42.7c1.9-0.1,3.8,0,5.7,0c0,0.1,0,0.2,0,0.3c1.9,0,3.8,0,5.6,0c0.9,0,1.2-0.3,1-1.2
	c-0.7-3-2.3-5.6-6.3-5.6c-3.5-0.1-6.3,1.9-7.1,5.2C183.2,42.3,183.4,42.8,184.4,42.7z M102,43.7c1.7,5,3.4,9.9,5,14.8
	c0.7,2.1-0.6,5.6-3.9,5.3c-1-0.1-2.1-0.1-3.1-0.3c-1-0.2-1.3,0.1-1.3,1c0,1.5,0,3-0.1,4.4c-0.1,1.3,0.5,1.7,1.6,1.7
	c1.6,0,3.2,0.3,4.8,0.2c1.6-0.1,3.3-0.4,4.9-1c3-1.1,4.3-3.8,5.4-6.5c1.7-4.2,3.3-8.4,5-12.6c2.8-7,5.6-14,8.4-21
	c0.3-0.7,0.2-1.1-0.6-1.1c-2.4,0-4.7-0.1-7.1-0.1c-0.4,0-0.9,0.5-1.2,0.8c-0.3,0.4-0.4,0.9-0.6,1.3c-1.9,5.5-3.8,11.1-5.7,16.7
	c-0.2,0.6-0.5,1.2-0.8,1.9c-1.2-3.2-2.2-6.3-3.1-9.4c-1.1-3.6-2.1-7.1-3.2-10.7c-0.1-0.4-0.6-1-1-1c-2.8-0.1-5.6,0-8.5,0
	c0.3,0.8,0.5,1.5,0.8,2.3C99.1,34.9,100.5,39.3,102,43.7z M173,30c-2,0-4-0.1-6-0.2c-1-0.1-1.6,0.2-1.8,1.2
	c-0.1,0.4-0.3,0.7-0.4,1.1c-1.9,5.7-3.9,11.4-5.8,17.1c-0.1,0.4-0.4,0.7-0.6,1c-0.8-1.7-1.3-3.4-1.8-5.1c-1.2-4.2-2.3-8.4-3.5-12.6
	c-0.9-3.1-0.9-3.1-4.1-3.2c-0.2,0-0.4-0.1-0.6-0.1c-1.7,0-3.5,0-5.4,0c0.1,0.6,0.1,0.9,0.2,1.2c1.6,5.1,3.1,10.1,4.7,15.2
	c1.5,4.8,3.1,9.7,4.5,14.5c0.3,0.9,0.7,1.1,1.5,1.2c2.6,0,5.1,0.1,7.7,0.2c0.8,0,1.1-0.2,1.3-0.9c0.9-2.6,2-5.1,2.9-7.7
	c2.6-7.2,5.3-14.4,7.9-21.6C174.1,30.4,174,30,173,30z M17.7,57.1c3.3,1.3,6.8,0.9,10.2,0.8c0.2,0,0.6-0.6,0.7-0.9
	c0.1-1.2,0.1-2.4,0.1-3.6c0.1-2.2,0.1-2.2-2-2.2c-0.1,0-0.2,0-0.4,0c-3.2-0.2-3.9-0.8-3.9-4.1c0-1.6,0.1-3.2,0.1-4.8
	c0.1-3.2,0.3-6.5,0.4-9.7c0-0.8,0.3-1,1.1-1c1.4,0.1,2.7,0.2,4.1,0.1c0.4,0,1.2-0.4,1.2-0.7c0.2-1.3,0.1-2.7,0.1-4.1
	c0-0.8-0.4-1.1-1.2-1.1c-1.3,0-2.6-0.1-3.8,0c-1.1,0-1.4-0.5-1.3-1.5c0.1-2.2,0.1-4.4,0.3-6.6c0.1-1-0.3-1.5-1.3-1.5c-2,0-4,0-6-0.1
	c-1-0.1-1.3,0.3-1.3,1.3c-0.1,2.4-0.2,4.7-0.3,7.1c0,0.7-0.3,1-1,1c-0.8,0-1.7,0-2.5-0.1c-0.9-0.1-1.3,0.3-1.3,1.3
	c0.1,1.3,0.2,2.6,0.2,3.9c0,0.6,0.2,0.8,0.9,0.8c0.8-0.1,1.6,0,2.4,0c0.8,0,1.1,0.3,1.1,1.2c0,3.2,0,6.3,0,9.5c-0.2,0-0.3,0-0.5,0
	c0,3,0,6.1,0,9.1C13.7,53.8,15.2,56.2,17.7,57.1z M268.9,64.3c2,0.6,4.2,1,6.3,1.1c4.5,0.1,8.7-0.9,11.8-4.7
	c1.3-1.6,2.3-3.3,2.9-5.5c-2.5-0.1-4.8-0.2-7.1-0.2c-0.3,0-0.6,0.4-0.8,0.6c-1.1,1.8-2.8,2.8-4.8,3.1c-5.6,0.7-8.5-1.5-9.2-6.6
	c-0.1-1,0.1-1.5,1.3-1.5c6.1,0.2,12.3,0.3,18.4,0.5c3.1,0.1,3.1,0.1,2.9-3.1c0-0.1-0.1-0.1-0.2-0.3c-0.9-0.1-1.8-0.2-2.7-0.3
	c-5.6-0.4-11.2-0.8-16.7-1.2c-3.5-0.2-6.9-0.5-10.4-0.7c-1-0.1-1.3,0.3-1.4,1.3c-0.2,3.4,0,6.7,1.5,9.8
	C262.6,60.3,265.1,63.1,268.9,64.3z M326.4,66.5c5.5-0.8,9.3-3.7,11.4-8.8c0.3-0.8,0.4-1.3-0.7-1.4c-1.9,0-3.8-0.1-5.7-0.1
	c-0.4,0-0.9,0.2-1.1,0.5c-1.2,2-2.9,3-5.1,3.3c-4.8,0.7-8.5-1.6-9-6.6c-0.1-1.4,0-1.5,1.4-1.5c4.8,0.1,9.7,0.2,14.5,0.3
	c2.2,0,4.4,0,6.8,0c0-0.4,0-0.8,0.1-1.3c-10.5-0.7-20.8-1.3-31.3-2c-0.1,0.7-0.2,1.2-0.3,1.8c-0.2,3.1,0.7,6,2.2,8.7
	c1.1,1.9,2.5,3.6,4.4,4.7C317.8,66.2,322,67.1,326.4,66.5z M417.1,65.9c0.3-0.3,0.6-0.4,1.1-0.8c0,1-0.1,1.6,0,2.3
	c0.1,0.4,0.5,1,0.7,1c2.4,0.1,4.8,0,7.6,0c0-4,0-7.9,0-12.1c-1.8-0.1-3.8-0.1-5.8-0.3c-2.4-0.2-2.4-0.2-3.2,2
	c-1.7,4.4-6.6,6.1-10.4,3.4c-1.9-1.3-2.7-3.3-3.1-5.5c-0.1-0.3-0.4-0.9-0.6-0.9c-2.5-0.2-4.9-0.4-7.4-0.5c-0.7,0-1,0.3-0.9,0.9
	c0.1,1,0.3,2,0.5,2.9c1.3,4.9,4.2,8.6,9.2,10.1C409.4,69.7,413.6,69.4,417.1,65.9z M421.1,163.5c-5.9-0.1-11.8-0.2-17.7-0.4
	c-1.1,0-1.5,0.3-1.5,1.4c0,3.2-0.1,6.4-0.3,9.6c-0.1,1,0.2,1.3,1.2,1.3c3.2,0,6.4-0.1,9.6-0.1c3.5,0,7,0,10.6,0
	c0.2-0.9,0.4-1.5,0.4-2.1c0.1-2.4,0.1-4.8,0.1-7.3C423.5,163.6,423.5,163.6,421.1,163.5z M427.5,32.6c0.1-2.6,0.2-2.7-2.4-3
	c-2-0.2-4-0.4-6.1-0.6c-0.1,3.8-0.2,7.3-0.4,10.9c-0.1,0-0.2,0.1-0.3,0.1c-3-3.7-7.1-4.9-11.6-4.2c-4.5,0.7-7.8,3.3-9.8,7.6
	c0.3,0.1,0.5,0.2,0.6,0.2c3,0,6.1,0,9.1,0c0.3,0,0.7-0.1,1-0.3c2.2-1.1,4.4-1.2,6.7-0.4c1.1,0.4,2.3,0.5,3.5,0.7
	c1.2,0.1,2.5,0.1,3.7,0.1c2,0,4,0,6.1,0C426.7,39.8,427.4,36.2,427.5,32.6z M364.5,62.7c2.2,2.7,5.2,4.4,8.6,5
	c5.4,1,10.5,0.6,14.9-3.3c1.9-1.7,3.2-3.7,3.8-6.2c-0.2-0.1-0.3-0.2-0.4-0.2c-2.2-0.1-4.5-0.2-6.7-0.2c-0.2,0-0.6,0.2-0.7,0.4
	c-1.1,2.2-3.1,3.1-5.4,3.4c-5.1,0.6-8.6-1.6-8.9-7.1c0-0.8,0.2-1.1,1.1-1.1c1.5,0.1,3,0,4.8,0c-0.4-0.1-0.6-0.2-0.8-0.2
	c-4.2-0.3-8.4-0.6-12.6-0.9c-1.1-0.1-1.3,0.7-1.2,1.5C361.2,57.1,362.3,60.1,364.5,62.7z M341.8,40.5c0.4,0,0.8,0.1,1.2,0.1
	c1.9,0,1.9,0,2,1.9c0,0.7,0.2,1.1,1,1.1c2.5,0,4.9,0,7.5,0c0-0.5,0.1-0.8,0.1-1.1c0.1-1.6,0.1-1.6,1.6-1.6c1.2,0,2.4,0.1,3.6,0.1
	c0.8,0,1.3-0.2,1.2-1.1c0-1.2,0-2.3,0.1-3.5c0.1-1-0.4-1.3-1.3-1.3c-1.2,0-2.5,0-3.7-0.1c-1,0-1.4-0.3-1.4-1.4c0.2-2,0.1-4,0.2-6
	c0-0.8-0.3-1.1-1-1.1c-2.1-0.1-4.1-0.2-6.2-0.3c-1.1-0.1-1.5,0.4-1.5,1.5c0.1,2-0.1,3.9-0.1,5.9c0,0.9-0.4,1.1-1.2,1.1
	c-1.1-0.1-2.2,0-3.2-0.1c-0.7,0-1,0.2-1,1c0.1,0.9,0,1.8,0,2.7C339.7,40.4,339.7,40.4,341.8,40.5z M261.3,43.6c2.2,0,4.3,0,6.5,0
	c0.3,0,0.8-0.4,0.9-0.7c1-2.7,3.1-4.2,6-4.3c3.5-0.1,5.3,1,6.7,3.7c0.3,0.5,1,1.2,1.5,1.2c2.3,0.1,4.7,0.1,7.3,0.1
	c-1-3.8-2.7-6.9-5.9-9c-3.9-2.7-8.3-3.3-12.8-2.2c-5.5,1.3-9,4.8-11,10C260.1,43.1,260.3,43.6,261.3,43.6z M316.4,43.6
	c0.4,0,0.9-0.4,1.1-0.8c2.3-4,9.5-4,11.6-0.2c0.4,0.7,1,1,1.9,1c1.7,0,3.4,0,5,0c0.7,0,1.3-0.1,2-0.1c-2-6.2-7.3-10.6-15-10.4
	c-7.5,0.3-12.8,5.2-14.4,10.2c0.2,0.1,0.4,0.2,0.6,0.2C311.7,43.6,314.1,43.6,316.4,43.6z M295.5,43.5c2.7,0.1,5.3,0.1,8.2,0.1
	c0-2,0-3.8,0-5.6c0.1-4,0.2-8.1,0.3-12.1c0-0.4-0.4-1.2-0.7-1.2c-2.6-0.1-5.3-0.1-8-0.1c-0.1,2.9-0.3,6-0.4,9.1
	c-0.1,2.9-0.1,5.8-0.1,8.8C294.8,42.8,295.2,43.5,295.5,43.5z M370.2,43.6c0.7,0,1.6-0.3,2.1-0.8c2.3-1.8,6.2-2.2,8.5-0.5
	c1.4,1,2.7,1.3,4.3,1.3c1.9-0.1,3.8,0,5.8,0c-1.5-4.6-6.2-8.7-13.6-8.9c-6.4-0.2-12.4,3.6-14.4,8.9c0.6,0,1,0.1,1.4,0.1
	C366.2,43.6,368.2,43.7,370.2,43.6z M352.2,51.7c-2,0-4-0.2-6-0.3c-1.4-0.1-1.6,0-1.6,1.4c-0.1,2.3-0.3,4.7-0.2,7
	c0.1,3.4,1.6,5.5,5.2,6.5c1.8,0.5,3.7,0.5,5.5,0.8c0-0.1,0-0.2,0-0.2c1.1,0,2.2,0.1,3.2,0c0.3,0,0.8-0.4,0.9-0.7
	c0.1-1.7,0.2-3.4,0.2-5.1c0-0.3-0.5-0.7-0.9-0.8c-0.8-0.1-1.6,0-2.4,0c-2-0.1-2.9-0.9-3-2.9c-0.1-1.5,0-2.9,0.1-4.4
	C353.4,52.2,353.2,51.8,352.2,51.7z M295.1,65c2.1,0,4.1,0.1,6.2,0.2c1,0,1.5-0.3,1.5-1.3c0-2.1,0.1-4.1,0.2-6.2c0-3,0-6,0-9.1
	c-2.3-0.2-4.7-0.3-7.1-0.5c-1.1-0.1-1.5,0.3-1.5,1.4c0,2.2-0.1,4.5-0.1,6.7c-0.1,2.5-0.1,5-0.2,7.5C294,64.3,294.1,65,295.1,65z
	 M131.7,36.6c4.4-0.6,8-4.2,8.3-8.6c0.2-2.7,0.2-5.4,0.3-8.1c0-0.7-0.2-1.1-0.9-1.1c-2.3-0.1-4.6-0.2-6.9-0.3
	c-0.7,0-0.9,0.3-0.9,0.9c0,1.3-0.1,2.6-0.2,3.8c-0.1,3,0,3.1,2.9,3.3c0.7,0.1,0.9,0.3,0.9,1c-0.1,2.2-1.3,3.7-3.2,4.7
	c-0.3,0.2-0.8,0.4-0.9,0.7c-0.1,1.2,0,2.4,0,3.5C131.5,36.5,131.6,36.6,131.7,36.6z M426.5,112.4c0.1,0,0.1,0,0.2,0
	c0.2-6.1,0.4-12.3,0.6-18.4c-0.1,0-0.1,0-0.2,0C426.9,100.1,426.7,106.3,426.5,112.4z M428.3,58.3c0,2.2,0,4.4,0,5.7
	c0.1-1.2,0.2-3.4,0.3-5.6C428.5,58.3,428.4,58.3,428.3,58.3z M426.5,120.1c0,0,0.1,0,0.1,0c0-1.8,0-3.6,0-5.4c0,0-0.1,0-0.1,0
	C426.5,116.5,426.5,118.3,426.5,120.1z"/>
</svg>
