<?xml version="1.0" encoding="utf-8"?>
<!-- Generator: Adobe Illustrator 23.0.3, SVG Export Plug-In . SVG Version: 6.00 Build 0)  -->
<svg version="1.1" id="Layer_1" xmlns="http://www.w3.org/2000/svg" xmlns:xlink="http://www.w3.org/1999/xlink" x="0px" y="0px"
	 viewBox="0 0 300 200" style="enable-background:new 0 0 300 200;" xml:space="preserve">
<style type="text/css">
	.st0{fill:#212121;}
	.st1{fill:#FAF291;}
	.st2{fill:#B72025;}
	.st3{fill:#84D2F6;}
	.st4{fill:#FACDD2;}
	.st5{fill:#FFFFFF;}
	.st6{opacity:0.32;}
	.st7{opacity:0.21;}
	.st8{opacity:0.2;fill:#E53A35;}
</style>
<path class="st8" d="M280.2,87.9l-0.4-4.2c0.1-0.8,0.1-1.7,0.1-2.5l-1-12.6c-0.5-6.5-6.1-11.2-12.6-10.7l-0.9,0.1l-0.1-0.9
	c-0.4-4.5-4.3-7.8-8.8-7.4l-9,0.7c-0.6,0-1.1,0.2-1.6,0.3c-0.5-0.1-1.1-0.1-1.7,0L227,52.1c-1.2,0.1-2.3,0.4-3.3,1
	c-1.1-0.4-2.2-0.5-3.4-0.4l-1.8,0.1l0-3.1l-8.9-7.2l-3.6-10.9l-10.7-4.1l-6.8-9.3l-11.5-0.6l-9.3-6.7l-7.9,2.2l-1.2-0.9l-3.9,1.1
	l-8.9-2.9l-4.4,2.9l-4.8-1.5l-7.6,5l-4.3,0l-1,1.3l-8.1,0l-7.2,8.9l-10.9,3.6l-4.1,10.7l-9.3,6.8l-0.6,11.4l-3.5,4.8l-6.5,0.5
	c-1.1,0.1-2.2,0.4-3.1,0.9c-1-0.3-2.1-0.5-3.2-0.4l-8.5,0.7c-0.7,0-1.3,0.2-1.9,0.4c-0.6-0.1-1.3-0.1-1.9-0.1l-9,0.8
	c-2,0.2-3.7,1-5,2.3c-7.1,0.6-12.4,6.9-11.8,14l2.4,28.7c0.6,7.2,6.9,12.5,14,11.9l9-0.7c0.7-0.1,1.3-0.2,2-0.3c0.7,0,1.3,0,2,0
	l8.9-0.8c0.3,0,0.5-0.1,0.8-0.1c0.3,0,0.6,0,0.9,0l3.2-0.3c-0.1,1-0.1,2,0,3l2.3,27.5c0.9,10.8,10,18.5,20.8,17.6l4.4-0.4
	c2.6,3,6.6,4.8,10.9,4.5l15.6-1.3c4.3-0.4,8-2.8,10-6.2l4.4-0.4c0.3,0,0.5-0.1,0.8-0.1c2.6,3.1,6.6,4.9,10.9,4.5l15.6-1.3
	c7.2-0.6,12.5-6.9,11.9-14l-0.2-2.6l0.9-0.1l0.2,2.6c0.6,7.2,6.9,12.5,14,11.9l15.5-1.3c1.1-0.1,2.1-0.3,3.1-0.6
	c1,0.2,2.1,0.2,3.2,0.1l15.5-1.3c7.2-0.6,12.5-6.9,11.9-14l-0.4-4.7c0.1-0.7,0.2-1.4,0.1-2.1l-2.9-35.4l2.6-0.2
	c0.6,0,1.1-0.1,1.6-0.3c0.5,0,1.1,0,1.6,0l18-1.5C274.3,105.1,281,97.2,280.2,87.9z"/>
</svg>
