<?xml version="1.0" encoding="utf-8"?>
<!-- Generator: Adobe Illustrator 23.0.3, SVG Export Plug-In . SVG Version: 6.00 Build 0)  -->
<svg version="1.1" id="Layer_1" xmlns="http://www.w3.org/2000/svg" xmlns:xlink="http://www.w3.org/1999/xlink" x="0px" y="0px"
	 viewBox="0 0 152.9 110" style="enable-background:new 0 0 152.9 110;" xml:space="preserve">
<style type="text/css">
	.st0{fill:#B72126;stroke:#B72126;stroke-miterlimit:10;}
	.st1{fill:url(#SVGID_1_);}
	.st2{fill:none;stroke:#F2F1EF;stroke-miterlimit:10;}
	.st3{opacity:0.4;}
	.st4{fill:#FBCED2;stroke:#FBCED2;stroke-miterlimit:10;}
	.st5{fill:#FAF293;stroke:#85D1F4;stroke-miterlimit:10;}
</style>
<g>
	<g>
		<path class="st0" d="M4.3,34.2h2.3l3.9-18.9h15.1v18.9h2.1v6.3H4.3V34.2z M17.7,21.6h-1.1l-1.9,12.6h3.1V21.6z"/>
		<path class="st0" d="M32.7,40.5c-1.9,0-3.2-1.3-3.2-3.1V18.5c0-1.8,1.3-3.1,3.2-3.1h12.6c1.9,0,3.2,1.3,3.2,3.1v18.9
			c0,1.8-1.3,3.1-3.2,3.1H32.7z M37.4,21.7v12.6h3.1V21.7H37.4z"/>
		<path class="st0" d="M70.1,27.6v9.8c0,1.8-1.3,3.2-3.1,3.2H51.3V15.3H70v3.1l-1.3,3.2h-9.6v2.8H67C68.8,24.5,70.1,25.8,70.1,27.6z
			 M62.3,34.2v-3.5h-3.2v3.5H62.3z"/>
		<path class="st0" d="M80.5,32.7v7.8h-7.9V15.3h15.7c1.9,0,3.2,1.3,3.2,3.1v11.1c0,1.8-1.3,3.2-3.2,3.2H80.5z M80.5,26.4h3.1v-4.7
			h-3.1V26.4z"/>
		<path class="st0" d="M112.7,26.3v11c0,1.8-1.3,3.2-3.1,3.2H94.1V15.3h7.9v7.9h7.6C111.4,23.2,112.7,24.5,112.7,26.3z M104.8,34.2
			v-4.7H102v4.7H104.8z M122.7,15.3v25.2h-7.9V15.3H122.7z"/>
		<path class="st0" d="M136.6,15.3h7.9v25.2h-7.9v-3.1l1.2-8.1h-0.6l-3.7,8.7v2.5h-7.9V15.3h7.9v3.1l-1.2,8.1h0.6l3.7-8.7V15.3z
			 M129.1,6.5H141V10l-1,2.6h-10.8V6.5z"/>
		<path class="st0" d="M25.3,72.5V47.3H41c1.9,0,3.2,1.3,3.2,3.1v5.8c0,1.8-1.5,3-3.2,3V60c1.7,0,3.2,1.2,3.2,3.1v6.4
			c0,1.8-1.3,3.1-3.2,3.1H25.3z M36.3,53.7h-3.1v2.8h3.1V53.7z M33.1,66.2h3.1v-3.5h-3.1V66.2z"/>
		<path class="st0" d="M46.7,72.5V47.3h16.8v3.1l-1.3,3.2h-7.7v2.8h7.7v6.3h-7.7v3.5h9v6.3H46.7z"/>
		<path class="st0" d="M65.3,60.9V47.3h7.8v10.4h3.2V47.3h7.8v25.2h-7.8V64h-7.9C66.6,64,65.3,62.7,65.3,60.9z"/>
		<path class="st0" d="M87.1,72.5V47.3h16.8v3.1l-1.3,3.2h-7.7v2.8h7.7v6.3h-7.7v3.5h9v6.3H87.1z"/>
		<path class="st0" d="M114,64.7v7.8h-7.9V47.3h15.7c1.9,0,3.2,1.3,3.2,3.1v11.1c0,1.8-1.3,3.2-3.2,3.2H114z M114,58.4h3.1v-4.7H114
			V58.4z"/>
		<path class="st0" d="M22.1,96.7v7.8h-7.9V79.3h15.7c1.9,0,3.2,1.3,3.2,3.1v11.1c0,1.8-1.3,3.2-3.2,3.2H22.1z M22.1,90.4h3.1v-4.7
			h-3.1V90.4z"/>
		<path class="st0" d="M38.8,104.5c-1.9,0-3.2-1.3-3.2-3.1V82.5c0-1.8,1.3-3.1,3.2-3.1h12.6c1.9,0,3.2,1.3,3.2,3.1v18.9
			c0,1.8-1.3,3.1-3.2,3.1H38.8z M43.5,85.7v12.6h3.1V85.7H43.5z"/>
		<path class="st0" d="M74.2,79.3v3.1L73,85.7h-7.7v12.6h9v6.3H60.6c-1.9,0-3.2-1.3-3.2-3.1V82.5c0-1.8,1.3-3.1,3.2-3.1H74.2z"/>
		<path class="st0" d="M93.2,79.3v3.1L92,85.7h-7.7v12.6h9v6.3H79.6c-1.9,0-3.2-1.3-3.2-3.1V82.5c0-1.8,1.3-3.1,3.2-3.1H93.2z"/>
		<path class="st0" d="M106.4,79.3h7.8v25.2h-7.8v-3.1l1.2-8.1H107l-3.7,8.7v2.5h-7.8V79.3h7.8v3.1l-1.2,8.1h0.6l3.7-8.7V79.3z"/>
		<path class="st0" d="M135.7,104.5h-7.9v-7.9h-1.6l-2.1,7.9h-7.7v-3.1l2.4-6.2c-1.2-0.3-2.1-1.7-2.1-2.9v-9.8
			c0-1.8,1.3-3.2,3.2-3.2h15.7V104.5z M124.7,90.3h3.1v-4.7h-3.1V90.3z"/>
	</g>
	<linearGradient id="SVGID_1_" gradientUnits="userSpaceOnUse" x1="74.4047" y1="102.7414" x2="74.4047" y2="4.7258">
		<stop  offset="0" style="stop-color:#85D1F4"/>
		<stop  offset="0.2253" style="stop-color:#89D0F3"/>
		<stop  offset="0.4104" style="stop-color:#96D0EF"/>
		<stop  offset="0.5811" style="stop-color:#AAD0E9"/>
		<stop  offset="0.7434" style="stop-color:#C4D0E2"/>
		<stop  offset="0.8981" style="stop-color:#E2CED9"/>
		<stop  offset="1" style="stop-color:#FBCED2"/>
	</linearGradient>
	<path class="st1" d="M27.7,32.4h-2.1V13.5H10.5L6.6,32.4H4.3v6.3h23.4V32.4z M17.7,32.4h-3.1l1.9-12.6h1.1V32.4z M32.7,38.7h12.6
		c1.9,0,3.2-1.3,3.2-3.1V16.7c0-1.8-1.3-3.1-3.2-3.1H32.7c-1.9,0-3.2,1.3-3.2,3.1v18.9C29.5,37.4,30.8,38.7,32.7,38.7z M37.4,19.9
		h3.1v12.6h-3.1V19.9z M70.1,35.6v-9.8c0-1.8-1.3-3.1-3.1-3.1h-7.9v-2.8h9.6l1.3-3.2v-3.1H51.3v25.2H67
		C68.8,38.7,70.1,37.4,70.1,35.6z M62.3,32.4h-3.2V29h3.2V32.4z M80.5,30.9h7.8c1.9,0,3.2-1.3,3.2-3.2V16.7c0-1.8-1.3-3.1-3.2-3.1
		H72.7v25.2h7.9V30.9z M80.5,19.9h3.1v4.7h-3.1V19.9z M112.7,35.6v-11c0-1.8-1.3-3.1-3.1-3.1H102v-7.9h-7.9v25.2h15.4
		C111.4,38.7,112.7,37.4,112.7,35.6z M104.8,32.4H102v-4.7h2.8V32.4z M122.7,38.7h-7.9V13.5h7.9V38.7z M140,10.8h-10.8v-6H141v3.5
		L140,10.8z M144.5,13.5v25.2h-7.9v-3.1l1.2-8.1h-0.6l-3.7,8.7v2.5h-7.9V13.5h7.9v3.1l-1.2,8.1h0.6l3.7-8.7v-2.5H144.5z M44.2,54.5
		v-5.8c0-1.8-1.3-3.1-3.2-3.1H25.3v25.2H41c1.9,0,3.2-1.3,3.2-3.1v-6.4c0-1.9-1.5-3.1-3.2-3.1v-0.7C42.7,57.5,44.2,56.3,44.2,54.5z
		 M36.3,64.4h-3.1V61h3.1V64.4z M36.3,54.7h-3.1v-2.8h3.1V54.7z M54.5,51.9v2.8h7.7V61h-7.7v3.5h9v6.3H46.7V45.5h16.8v3.1l-1.3,3.2
		H54.5z M76.3,70.7v-8.5h-7.9c-1.8,0-3.1-1.3-3.1-3.2V45.5h7.8v10.4h3.2V45.5h7.8v25.2H76.3z M94.9,51.9v2.8h7.7V61h-7.7v3.5h9v6.3
		H87.1V45.5h16.8v3.1l-1.3,3.2H94.9z M106.1,45.5v25.2h7.9v-7.8h7.8c1.9,0,3.2-1.3,3.2-3.2V48.7c0-1.8-1.3-3.1-3.2-3.1H106.1z
		 M117.1,56.6H114v-4.7h3.1V56.6z M29.9,77.5H14.2v25.2h7.9v-7.8h7.8c1.9,0,3.2-1.3,3.2-3.2V80.7C33.1,78.8,31.8,77.5,29.9,77.5z
		 M25.2,88.6h-3.1v-4.7h3.1V88.6z M51.3,77.5H38.8c-1.9,0-3.2,1.3-3.2,3.1v18.9c0,1.8,1.3,3.1,3.2,3.1h12.6c1.9,0,3.2-1.3,3.2-3.1
		V80.7C54.5,78.8,53.2,77.5,51.3,77.5z M46.6,96.4h-3.1V83.9h3.1V96.4z M60.6,77.5h13.7v3.1L73,83.9h-7.7v12.6h9v6.3H60.6
		c-1.9,0-3.2-1.3-3.2-3.1V80.7C57.4,78.8,58.7,77.5,60.6,77.5z M79.6,77.5h13.7v3.1L92,83.9h-7.7v12.6h9v6.3H79.6
		c-1.9,0-3.2-1.3-3.2-3.1V80.7C76.4,78.8,77.7,77.5,79.6,77.5z M106.4,77.5h7.8v25.2h-7.8v-3.1l1.2-8.1H107l-3.7,8.7v2.5h-7.8V77.5
		h7.8v3.1l-1.2,8.1h0.6l3.7-8.7V77.5z M116.8,80.7v9.8c0,1.2,0.9,2.6,2.1,2.9l-2.4,6.2v3.1h7.7l2.1-7.9h1.6v7.9h7.9V77.5H120
		C118.1,77.5,116.8,78.9,116.8,80.7z M124.7,83.8h3.1v4.7h-3.1V83.8z"/>
	<g>
		<g>
			<path class="st2" d="M4.3,32.4h2.3l3.9-18.9h15.1v18.9h2.1v6.3H4.3V32.4z M17.7,19.8h-1.1l-1.9,12.6h3.1V19.8z"/>
			<path class="st2" d="M32.7,38.7c-1.9,0-3.2-1.3-3.2-3.1V16.7c0-1.8,1.3-3.1,3.2-3.1h12.6c1.9,0,3.2,1.3,3.2,3.1v18.9
				c0,1.8-1.3,3.1-3.2,3.1H32.7z M37.4,19.9v12.6h3.1V19.9H37.4z"/>
			<path class="st2" d="M70.1,25.8v9.8c0,1.8-1.3,3.2-3.1,3.2H51.3V13.5H70v3.1l-1.3,3.2h-9.6v2.8H67C68.8,22.7,70.1,24,70.1,25.8z
				 M62.3,32.4V29h-3.2v3.5H62.3z"/>
			<path class="st2" d="M80.5,30.9v7.8h-7.9V13.5h15.7c1.9,0,3.2,1.3,3.2,3.1v11.1c0,1.8-1.3,3.2-3.2,3.2H80.5z M80.5,24.6h3.1v-4.7
				h-3.1V24.6z"/>
			<path class="st2" d="M112.7,24.6v11c0,1.8-1.3,3.2-3.1,3.2H94.1V13.5h7.9v7.9h7.6C111.4,21.4,112.7,22.7,112.7,24.6z M104.8,32.4
				v-4.7H102v4.7H104.8z M122.7,13.5v25.2h-7.9V13.5H122.7z"/>
			<path class="st2" d="M136.6,13.5h7.9v25.2h-7.9v-3.1l1.2-8.1h-0.6l-3.7,8.7v2.5h-7.9V13.5h7.9v3.1l-1.2,8.1h0.6l3.7-8.7V13.5z
				 M129.1,4.7H141v3.5l-1,2.6h-10.8V4.7z"/>
			<path class="st2" d="M25.3,70.7V45.5H41c1.9,0,3.2,1.3,3.2,3.1v5.8c0,1.8-1.5,3-3.2,3v0.7c1.7,0,3.2,1.2,3.2,3.1v6.4
				c0,1.8-1.3,3.1-3.2,3.1H25.3z M36.3,51.9h-3.1v2.8h3.1V51.9z M33.1,64.4h3.1V61h-3.1V64.4z"/>
			<path class="st2" d="M46.7,70.7V45.5h16.8v3.1l-1.3,3.2h-7.7v2.8h7.7V61h-7.7v3.5h9v6.3H46.7z"/>
			<path class="st2" d="M65.3,59.1V45.5h7.8v10.4h3.2V45.5h7.8v25.2h-7.8v-8.5h-7.9C66.6,62.2,65.3,60.9,65.3,59.1z"/>
			<path class="st2" d="M87.1,70.7V45.5h16.8v3.1l-1.3,3.2h-7.7v2.8h7.7V61h-7.7v3.5h9v6.3H87.1z"/>
			<path class="st2" d="M114,62.9v7.8h-7.9V45.5h15.7c1.9,0,3.2,1.3,3.2,3.1v11.1c0,1.8-1.3,3.2-3.2,3.2H114z M114,56.6h3.1v-4.7
				H114V56.6z"/>
			<path class="st2" d="M22.1,94.9v7.8h-7.9V77.5h15.7c1.9,0,3.2,1.3,3.2,3.1v11.1c0,1.8-1.3,3.2-3.2,3.2H22.1z M22.1,88.6h3.1v-4.7
				h-3.1V88.6z"/>
			<path class="st2" d="M38.8,102.7c-1.9,0-3.2-1.3-3.2-3.1V80.7c0-1.8,1.3-3.1,3.2-3.1h12.6c1.9,0,3.2,1.3,3.2,3.1v18.9
				c0,1.8-1.3,3.1-3.2,3.1H38.8z M43.5,83.9v12.6h3.1V83.9H43.5z"/>
			<path class="st2" d="M74.2,77.5v3.1L73,83.9h-7.7v12.6h9v6.3H60.6c-1.9,0-3.2-1.3-3.2-3.1V80.7c0-1.8,1.3-3.1,3.2-3.1H74.2z"/>
			<path class="st2" d="M93.2,77.5v3.1L92,83.9h-7.7v12.6h9v6.3H79.6c-1.9,0-3.2-1.3-3.2-3.1V80.7c0-1.8,1.3-3.1,3.2-3.1H93.2z"/>
			<path class="st2" d="M106.4,77.5h7.8v25.2h-7.8v-3.1l1.2-8.1H107l-3.7,8.7v2.5h-7.8V77.5h7.8v3.1l-1.2,8.1h0.6l3.7-8.7V77.5z"/>
			<path class="st2" d="M135.7,102.7h-7.9v-7.9h-1.6l-2.1,7.9h-7.7v-3.1l2.4-6.2c-1.2-0.3-2.1-1.7-2.1-2.9v-9.8
				c0-1.8,1.3-3.2,3.2-3.2h15.7V102.7z M124.7,88.6h3.1v-4.7h-3.1V88.6z"/>
		</g>
	</g>
	<g class="st3">
		<path class="st4" d="M6.3,32.4h2.3l3.9-18.9h15.1v18.9h2.1v6.3H6.3V32.4z M19.7,19.8h-1.1l-1.9,12.6h3.1V19.8z"/>
		<path class="st4" d="M34.7,38.7c-1.9,0-3.2-1.3-3.2-3.1V16.6c0-1.8,1.3-3.1,3.2-3.1h12.6c1.9,0,3.2,1.3,3.2,3.1v18.9
			c0,1.8-1.3,3.1-3.2,3.1H34.7z M39.4,19.8v12.6h3.1V19.8H39.4z"/>
		<path class="st4" d="M72.1,25.8v9.8c0,1.8-1.3,3.2-3.1,3.2H53.3V13.5H72v3.1l-1.3,3.2h-9.6v2.8H69C70.8,22.6,72.1,23.9,72.1,25.8z
			 M64.3,32.4v-3.5h-3.2v3.5H64.3z"/>
		<path class="st4" d="M82.5,30.8v7.8h-7.9V13.5h15.7c1.9,0,3.2,1.3,3.2,3.1v11.1c0,1.8-1.3,3.2-3.2,3.2H82.5z M82.5,24.5h3.1v-4.7
			h-3.1V24.5z"/>
		<path class="st4" d="M114.7,24.5v11c0,1.8-1.3,3.2-3.1,3.2H96.1V13.5h7.9v7.9h7.6C113.4,21.4,114.7,22.7,114.7,24.5z M106.8,32.4
			v-4.7H104v4.7H106.8z M124.7,13.5v25.2h-7.9V13.5H124.7z"/>
		<path class="st4" d="M138.6,13.5h7.9v25.2h-7.9v-3.1l1.2-8.1h-0.6l-3.7,8.7v2.5h-7.9V13.5h7.9v3.1l-1.2,8.1h0.6l3.7-8.7V13.5z
			 M131.1,4.7H143v3.5l-1,2.6h-10.8V4.7z"/>
		<path class="st4" d="M27.3,70.7V45.5H43c1.9,0,3.2,1.3,3.2,3.1v5.8c0,1.8-1.5,3-3.2,3v0.7c1.7,0,3.2,1.2,3.2,3.1v6.4
			c0,1.8-1.3,3.1-3.2,3.1H27.3z M38.3,51.8h-3.1v2.8h3.1V51.8z M35.1,64.4h3.1v-3.5h-3.1V64.4z"/>
		<path class="st4" d="M48.7,70.7V45.5h16.8v3.1l-1.3,3.2h-7.7v2.8h7.7v6.3h-7.7v3.5h9v6.3H48.7z"/>
		<path class="st4" d="M67.3,59V45.5h7.8v10.4h3.2V45.5h7.8v25.2h-7.8v-8.5h-7.9C68.6,62.2,67.3,60.8,67.3,59z"/>
		<path class="st4" d="M89.1,70.7V45.5h16.8v3.1l-1.3,3.2h-7.7v2.8h7.7v6.3h-7.7v3.5h9v6.3H89.1z"/>
		<path class="st4" d="M116,62.8v7.8h-7.9V45.5h15.7c1.9,0,3.2,1.3,3.2,3.1v11.1c0,1.8-1.3,3.2-3.2,3.2H116z M116,56.5h3.1v-4.7H116
			V56.5z"/>
		<path class="st4" d="M24.1,94.8v7.8h-7.9V77.5h15.7c1.9,0,3.2,1.3,3.2,3.1v11.1c0,1.8-1.3,3.2-3.2,3.2H24.1z M24.1,88.5h3.1v-4.7
			h-3.1V88.5z"/>
		<path class="st4" d="M40.8,102.7c-1.9,0-3.2-1.3-3.2-3.1V80.6c0-1.8,1.3-3.1,3.2-3.1h12.6c1.9,0,3.2,1.3,3.2,3.1v18.9
			c0,1.8-1.3,3.1-3.2,3.1H40.8z M45.5,83.8v12.6h3.1V83.8H45.5z"/>
		<path class="st4" d="M76.2,77.5v3.1L75,83.8h-7.7v12.6h9v6.3H62.6c-1.9,0-3.2-1.3-3.2-3.1V80.6c0-1.8,1.3-3.1,3.2-3.1H76.2z"/>
		<path class="st4" d="M95.2,77.5v3.1L94,83.8h-7.7v12.6h9v6.3H81.6c-1.9,0-3.2-1.3-3.2-3.1V80.6c0-1.8,1.3-3.1,3.2-3.1H95.2z"/>
		<path class="st4" d="M108.4,77.5h7.8v25.2h-7.8v-3.1l1.2-8.1H109l-3.7,8.7v2.5h-7.8V77.5h7.8v3.1l-1.2,8.1h0.6l3.7-8.7V77.5z"/>
		<path class="st4" d="M137.7,102.7h-7.9v-7.9h-1.6l-2.1,7.9h-7.7v-3.1l2.4-6.2c-1.2-0.3-2.1-1.7-2.1-2.9v-9.8
			c0-1.8,1.3-3.2,3.2-3.2h15.7V102.7z M126.7,88.5h3.1v-4.7h-3.1V88.5z"/>
	</g>
	<g class="st3">
		<path class="st5" d="M4.8,32h2.3L11,13.1h15.1V32h2.1v6.3H4.8V32z M18.3,19.4h-1.1L15.2,32h3.1V19.4z"/>
		<path class="st5" d="M33.2,38.3c-1.9,0-3.2-1.3-3.2-3.1V16.2c0-1.8,1.3-3.1,3.2-3.1h12.6c1.9,0,3.2,1.3,3.2,3.1v18.9
			c0,1.8-1.3,3.1-3.2,3.1H33.2z M37.9,19.4V32h3.1V19.4H37.9z"/>
		<path class="st5" d="M70.7,25.4v9.8c0,1.8-1.3,3.2-3.1,3.2H51.8V13.1h18.7v3.1l-1.3,3.2h-9.6v2.8h7.9
			C69.4,22.2,70.7,23.5,70.7,25.4z M62.8,32v-3.5h-3.2V32H62.8z"/>
		<path class="st5" d="M81.1,30.4v7.8h-7.9V13.1h15.7c1.9,0,3.2,1.3,3.2,3.1v11.1c0,1.8-1.3,3.2-3.2,3.2H81.1z M81.1,24.1h3.1v-4.7
			h-3.1V24.1z"/>
		<path class="st5" d="M113.2,24.1v11c0,1.8-1.3,3.2-3.1,3.2H94.6V13.1h7.9V21h7.6C111.9,21,113.2,22.3,113.2,24.1z M105.3,32v-4.7
			h-2.8V32H105.3z M123.3,13.1v25.2h-7.9V13.1H123.3z"/>
		<path class="st5" d="M137.2,13.1h7.9v25.2h-7.9v-3.1l1.2-8.1h-0.6l-3.7,8.7v2.5h-7.9V13.1h7.9v3.1l-1.2,8.1h0.6l3.7-8.7V13.1z
			 M129.7,4.3h11.8v3.5l-1,2.6h-10.8V4.3z"/>
		<path class="st5" d="M25.8,70.3V45.1h15.7c1.9,0,3.2,1.3,3.2,3.1V54c0,1.8-1.5,3-3.2,3v0.7c1.7,0,3.2,1.2,3.2,3.1v6.4
			c0,1.8-1.3,3.1-3.2,3.1H25.8z M36.8,51.4h-3.1v2.8h3.1V51.4z M33.7,64h3.1v-3.5h-3.1V64z"/>
		<path class="st5" d="M47.2,70.3V45.1h16.8v3.1l-1.3,3.2h-7.7v2.8h7.7v6.3h-7.7V64h9v6.3H47.2z"/>
		<path class="st5" d="M65.9,58.6V45.1h7.8v10.4h3.2V45.1h7.8v25.2h-7.8v-8.5H69C67.2,61.8,65.9,60.5,65.9,58.6z"/>
		<path class="st5" d="M87.6,70.3V45.1h16.8v3.1l-1.3,3.2h-7.7v2.8h7.7v6.3h-7.7V64h9v6.3H87.6z"/>
		<path class="st5" d="M114.5,62.4v7.8h-7.9V45.1h15.7c1.9,0,3.2,1.3,3.2,3.1v11.1c0,1.8-1.3,3.2-3.2,3.2H114.5z M114.5,56.1h3.1
			v-4.7h-3.1V56.1z"/>
		<path class="st5" d="M22.6,94.4v7.8h-7.9V77.1h15.7c1.9,0,3.2,1.3,3.2,3.1v11.1c0,1.8-1.3,3.2-3.2,3.2H22.6z M22.6,88.1h3.1v-4.7
			h-3.1V88.1z"/>
		<path class="st5" d="M39.3,102.3c-1.9,0-3.2-1.3-3.2-3.1V80.2c0-1.8,1.3-3.1,3.2-3.1h12.6c1.9,0,3.2,1.3,3.2,3.1v18.9
			c0,1.8-1.3,3.1-3.2,3.1H39.3z M44,83.4V96h3.1V83.4H44z"/>
		<path class="st5" d="M74.8,77.1v3.1l-1.2,3.2h-7.7V96h9v6.3H61.1c-1.9,0-3.2-1.3-3.2-3.1V80.2c0-1.8,1.3-3.1,3.2-3.1H74.8z"/>
		<path class="st5" d="M93.8,77.1v3.1l-1.2,3.2h-7.7V96h9v6.3H80.1c-1.9,0-3.2-1.3-3.2-3.1V80.2c0-1.8,1.3-3.1,3.2-3.1H93.8z"/>
		<path class="st5" d="M107,77.1h7.8v25.2H107v-3.1l1.2-8.1h-0.6l-3.7,8.7v2.5H96V77.1h7.8v3.1l-1.2,8.1h0.6l3.7-8.7V77.1z"/>
		<path class="st5" d="M136.2,102.3h-7.9v-7.9h-1.6l-2.1,7.9H117v-3.1l2.4-6.2c-1.2-0.3-2.1-1.7-2.1-2.9v-9.8c0-1.8,1.3-3.2,3.2-3.2
			h15.7V102.3z M125.2,88.1h3.1v-4.7h-3.1V88.1z"/>
	</g>
</g>
</svg>
