<?xml version="1.0" encoding="utf-8"?>
<!-- Generator: Adobe Illustrator 23.0.3, SVG Export Plug-In . SVG Version: 6.00 Build 0)  -->
<svg version="1.1" id="Layer_1" xmlns="http://www.w3.org/2000/svg" xmlns:xlink="http://www.w3.org/1999/xlink" x="0px" y="0px"
	 viewBox="0 0 54.6 43.8" style="enable-background:new 0 0 54.6 43.8;" xml:space="preserve">
<style type="text/css">
	.st0{fill:#F9F4CD;}
	.st1{fill:#CA90AB;}
	.st2{fill:#85D1F4;}
</style>
<g>
	<g>
		<path class="st0" d="M7.6,1.8v1l-0.4,1H4.7v4.1h2.9v2H3.2c-0.6,0-1-0.4-1-1V2.8c0-0.6,0.4-1,1-1H7.6z"/>
		<path class="st0" d="M9.9,10c-0.6,0-1-0.4-1-1V2.8c0-0.6,0.4-1,1-1H14c0.6,0,1,0.4,1,1v6.1c0,0.6-0.4,1-1,1H9.9z M11.5,3.8v4.1h1
			V3.8H11.5z"/>
		<path class="st0" d="M20.1,1.8h2.4v1.1l-0.9,2.8L22.7,9v1h-2.6l-0.6-3.2h-0.2L18.8,10h-2.6V9l1.1-3.3l-0.9-2.8V1.8h2.4l0.5,3h0.2
			L20.1,1.8z"/>
		<path class="st0" d="M26.5,7.4V10h-2.6V1.8H29c0.6,0,1,0.4,1,1v3.6c0,0.6-0.4,1-1,1H26.5z M26.5,5.4h1V3.8h-1V5.4z"/>
		<path class="st0" d="M36.2,1.8l1.1,7.1v1h-2.6l-0.2-1.6h-1.1L33.4,10h-2.5v-1L32,1.8H36.2z M34.5,6.3l-0.2-2.4H34l-0.2,2.4H34.5z"
			/>
		<path class="st0" d="M42.2,4.8v-3h2.5V10h-2.5V6.8h-1V10h-2.5V1.8h2.5v3H42.2z"/>
		<path class="st0" d="M49.9,1.8h2.5V10h-2.5v-1l0.4-2.6H50l-1.2,2.8V10h-2.5V1.8h2.5v1l-0.4,2.6h0.2l1.2-2.8V1.8z"/>
	</g>
	<g>
		<path class="st1" d="M7.8,40.7H3.9c-1,0-1.6-0.7-1.6-1.6v-7.1c0-1,0.7-1.6,1.6-1.6h3.9v-1.2h4v1.2h3.9c1,0,1.6,0.7,1.6,1.6V39
			c0,1-0.7,1.6-1.6,1.6h-3.9V42h-4V40.7z M6.3,33.5v3.9h1.5v-3.9H6.3z M13.2,37.4v-3.9h-1.4v3.9H13.2z"/>
		<path class="st1" d="M27.3,29.1l1.8,11.3V42h-4l-0.2-2.6h-1.8L22.8,42h-4v-1.6l1.8-11.3H27.3z M24.6,36.2l-0.4-3.8h-0.4l-0.4,3.8
			H24.6z"/>
		<path class="st1" d="M36.5,33.8v-4.7h4V42h-4v-5h-1.6v5h-4V29.1h4v4.7H36.5z"/>
		<path class="st1" d="M48.3,29.1h3.8v1.6l-1.5,4.5l1.8,5.2V42h-4l-1.1-5h-0.7v5h-4V29.1h4v4.7h0.7L48.3,29.1z"/>
	</g>
	<g>
		<path class="st2" d="M9.4,17.5v-5.7h4.9v15.7H9.4v-6.1h-2v6.1H2.6V11.8h4.9v5.7H9.4z"/>
		<path class="st2" d="M28.2,11.8l2.2,13.7v1.9h-4.9l-0.3-3.2h-2.1l-0.3,3.2h-4.9v-1.9l2.2-13.7H28.2z M24.9,20.4l-0.4-4.7h-0.5
			l-0.4,4.7H24.9z"/>
		<path class="st2" d="M38.9,11.8v11.7h1.8V11.8h4.9v11.7h1.8V11.8h4.9v15.7H34V11.8H38.9z"/>
	</g>
</g>
</svg>
