<svg id="Layer_1" data-name="Layer 1" xmlns="http://www.w3.org/2000/svg" viewBox="0 0 320.45 153.41"><defs><style>.cls-1{opacity:0.2;}.cls-2{fill:#84d2f6;}</style></defs><title>blueText</title><g class="cls-1"><path class="cls-2" d="M26.94,59.42l11.37-.06,0,4.77L34,77.45,39.48,93l0,4.78-12,.07L24.18,83H22.05l.09,14.91-12,.08L9.85,59.54l12-.09.09,14,2.15,0Z"/><path class="cls-2" d="M66.82,59.14l5.63,33.65,0,4.79-12,.08-.76-7.75-5.27,0-.72,7.74-12,.07,0-4.77,5.18-33.72ZM58.74,80.3,57.56,68.88H56.24l-1,11.45Z"/><path class="cls-2" d="M87.74,85.49l.07,12-12,.08-.25-38.46,24-.16a4.61,4.61,0,0,1,4.86,4.75l.1,16.87a4.61,4.61,0,0,1-4.78,4.86Zm-.07-9.61,4.78,0,0-7.17-4.8,0Z"/><path class="cls-2" d="M106.63,68.55l-.07-9.67,26.93-.19,0,4.8-1.89,4.89-5.76,0,.19,28.79-12,.08-.2-28.79Z"/><path class="cls-2" d="M141.34,97.12a4.6,4.6,0,0,1-4.87-4.76l-.18-28.9a4.6,4.6,0,0,1,4.79-4.81l19.17-.14a4.63,4.63,0,0,1,4.88,4.75l.19,28.91a4.59,4.59,0,0,1-4.8,4.81Zm7-28.85.13,19.18,4.78,0-.12-19.18Z"/><path class="cls-2" d="M185.5,92.69,174,92.76A4.59,4.59,0,0,1,169.15,88L169,66.75a4.62,4.62,0,0,1,4.82-4.86l11.47-.08V58.35l12-.07v3.45l11.48-.07a4.61,4.61,0,0,1,4.88,4.8l.14,21.22a4.6,4.6,0,0,1-4.8,4.85l-11.49.1,0,4.11-12,.08ZM181,71.46l.08,11.65,4.35,0-.1-11.64ZM201.75,83l-.07-11.65-4.29,0L197.47,83Z"/><path class="cls-2" d="M217.72,96.6l-.25-38.47L243.18,58l0,4.79-1.89,4.9-11.82.08,0,4.28,11.82-.08.07,9.62-11.82.08,0,5.28,13.75-.1.05,9.62Z"/><path class="cls-2" d="M263.38,96.3l-.17-28.86H261.5l-4.32,28.89-12.09.09,0-4.78,7-33.73,23-.17.25,38.47Z"/><path class="cls-2" d="M308.47,74.34l.11,16.81A4.63,4.63,0,0,1,303.84,96l-24.06.16-.27-38.45,12-.09.08,12,12-.07A4.57,4.57,0,0,1,308.47,74.34Zm-12,12.11,0-7.19-4.78,0,.05,7.19Z"/><path class="cls-2" d="M28.63,143.5l-13,.09a5.22,5.22,0,0,1-5.51-5.45l-.18-24a5.24,5.24,0,0,1,5.46-5.52l13-.09,0-3.93L42,104.46l0,3.94,13-.1a5.23,5.23,0,0,1,5.51,5.46l.16,24a5.21,5.21,0,0,1-5.44,5.52l-13,.1.05,4.66-13.65.09Zm-5.09-24.08.1,13.21,4.91,0-.09-13.19Zm23.52,13L47,119.27l-4.86,0,.09,13.21Z"/><path class="cls-2" d="M78.73,134.25l.09,13.58-13.65.08-.29-43.6,27.22-.18a5.21,5.21,0,0,1,5.53,5.38l.12,19.14a5.26,5.26,0,0,1-5.44,5.51Zm-.09-10.91,5.44,0,0-8.15-5.43,0Z"/><path class="cls-2" d="M121,103.93l13.59-.08.3,43.6-13.58.09,0-5.41,2-14-1.12,0-6.31,15.05,0,4.36-13.58.09L102,104.06l13.58-.1,0,5.43-1.9,14h1.06l6.32-15.07Z"/></g><g class="cls-1"><path class="cls-2" d="M26.85,39.87l11.38,0,0,4.76L33.89,57.91l5.49,15.57,0,4.78-12,.07L24.09,63.46H22l.09,14.9-12,.09L9.76,40l12-.09.09,14,2.15,0Z"/><path class="cls-2" d="M66.73,39.59l5.63,33.66,0,4.78-12,.09-.76-7.75-5.27,0-.72,7.75-12,.07,0-4.77,5.18-33.72ZM58.64,60.76,57.47,49.34H56.15l-1,11.44Z"/><path class="cls-2" d="M87.65,65.94l.07,12-12,.08-.25-38.46,24-.17a4.6,4.6,0,0,1,4.86,4.76L104.42,61a4.62,4.62,0,0,1-4.79,4.86Zm-.07-9.61,4.78,0,0-7.17-4.79,0Z"/><path class="cls-2" d="M106.54,49l-.07-9.66,26.93-.19,0,4.8-1.89,4.89-5.76,0L126,77.67l-12,.08L113.75,49Z"/><path class="cls-2" d="M141.25,77.58a4.61,4.61,0,0,1-4.87-4.76l-.18-28.9A4.59,4.59,0,0,1,141,39.11L160.16,39A4.61,4.61,0,0,1,165,43.72l.19,28.91a4.59,4.59,0,0,1-4.8,4.81Zm7-28.85.13,19.17,4.78,0L153,48.7Z"/><path class="cls-2" d="M185.41,73.14l-11.49.08a4.6,4.6,0,0,1-4.86-4.79l-.16-21.22a4.62,4.62,0,0,1,4.82-4.86l11.47-.08V38.81l12-.07v3.45l11.49-.07a4.61,4.61,0,0,1,4.87,4.8l.14,21.21a4.61,4.61,0,0,1-4.8,4.86l-11.49.09,0,4.12-12,.08Zm-4.49-21.22L181,63.57l4.34,0-.09-11.64Zm20.74,11.5-.07-11.64-4.29,0,.08,11.65Z"/><path class="cls-2" d="M217.63,77.05l-.25-38.46,25.71-.17,0,4.79-1.89,4.89-11.82.09,0,4.28,11.81-.08.07,9.62-11.82.08,0,5.27,13.75-.1,0,9.63Z"/><path class="cls-2" d="M263.29,76.76l-.17-28.86h-1.71l-4.32,28.89L245,76.87l0-4.77,7-33.74,23-.16.26,38.47Z"/><path class="cls-2" d="M308.38,54.8l.1,16.81a4.6,4.6,0,0,1-4.73,4.86l-24.06.16-.27-38.45,12-.08.08,12,12-.07A4.57,4.57,0,0,1,308.38,54.8ZM296.43,66.9l-.05-7.19-4.78,0,0,7.19Z"/><path class="cls-2" d="M28.54,124l-13,.09A5.23,5.23,0,0,1,10,118.6L9.82,94.54A5.24,5.24,0,0,1,15.28,89l13-.09,0-3.93,13.65-.09,0,3.93,13-.09a5.23,5.23,0,0,1,5.51,5.46l.16,24a5.21,5.21,0,0,1-5.45,5.52l-13,.1,0,4.66-13.65.09ZM23.45,99.88l.1,13.21,4.91,0-.09-13.19ZM47,112.93l-.1-13.2H42L42.11,113Z"/><path class="cls-2" d="M78.64,114.71l.09,13.58-13.65.08-.28-43.6L92,84.59A5.21,5.21,0,0,1,97.54,90l.13,19.13a5.28,5.28,0,0,1-5.45,5.52Zm-.08-10.91,5.43,0,0-8.15-5.43,0Z"/><path class="cls-2" d="M120.92,84.39l13.59-.09.3,43.61-13.58.1,0-5.42,2-14-1.12,0-6.31,15.05,0,4.36-13.58.09-.29-43.61,13.58-.1,0,5.43-1.9,14h1.06L121,88.75Z"/></g><g class="cls-1"><path class="cls-2" d="M26.79,27.55l11.38-.07,0,4.78L33.84,45.58l5.49,15.57,0,4.78-12,.07L24,51.13H21.9L22,66l-12,.09L9.7,27.67l12-.09.1,14,2.14,0Z"/><path class="cls-2" d="M66.67,27.27l5.64,33.65,0,4.79-12,.08L59.53,58l-5.27,0-.71,7.75-12,.08,0-4.78,5.17-33.72ZM58.59,48.43,57.41,37H56.09l-1,11.44Z"/><path class="cls-2" d="M87.59,53.62l.07,12-12,.07-.26-38.46,24-.16a4.6,4.6,0,0,1,4.86,4.75l.11,16.87a4.61,4.61,0,0,1-4.79,4.86ZM87.52,44l4.79,0,0-7.17-4.79,0Z"/><path class="cls-2" d="M106.49,36.68,106.41,27l26.93-.19,0,4.8-1.89,4.89-5.76,0,.18,28.79-12,.08-.19-28.79Z"/><path class="cls-2" d="M141.19,65.25a4.61,4.61,0,0,1-4.87-4.76l-.18-28.9a4.6,4.6,0,0,1,4.79-4.81l19.17-.14A4.62,4.62,0,0,1,165,31.39l.19,28.91a4.59,4.59,0,0,1-4.8,4.81Zm7-28.85.12,19.17,4.78,0L153,36.37Z"/><path class="cls-2" d="M185.35,60.81l-11.48.08A4.6,4.6,0,0,1,169,56.1l-.16-21.22A4.64,4.64,0,0,1,173.66,30l11.47-.08V26.48l12-.07,0,3.45,11.48-.07a4.61,4.61,0,0,1,4.87,4.8l.15,21.21a4.61,4.61,0,0,1-4.8,4.86l-11.49.1,0,4.11-12,.08ZM180.86,39.6l.08,11.64,4.35,0-.09-11.64ZM201.6,51.09l-.07-11.64-4.29,0,.08,11.65Z"/><path class="cls-2" d="M217.57,64.73l-.25-38.47L243,26.09l0,4.79-1.89,4.9-11.82.08,0,4.28,11.82-.07.07,9.61-11.82.08,0,5.27,13.75-.09,0,9.62Z"/><path class="cls-2" d="M263.24,64.43l-.18-28.86h-1.7L257,64.46l-12.1.09,0-4.78,7-33.73,23-.17.26,38.47Z"/><path class="cls-2" d="M308.33,42.47l.1,16.81a4.62,4.62,0,0,1-4.74,4.87l-24.06.16-.27-38.46,12.05-.07.07,12,12-.07A4.57,4.57,0,0,1,308.33,42.47Zm-12,12.11-.05-7.2-4.78,0,.06,7.2Z"/><path class="cls-2" d="M28.48,111.63l-13,.09a5.23,5.23,0,0,1-5.52-5.45L9.77,82.21a5.22,5.22,0,0,1,5.45-5.51l13-.09,0-3.93,13.65-.09,0,3.93,13-.09a5.22,5.22,0,0,1,5.51,5.45l.16,24.05a5.2,5.2,0,0,1-5.44,5.51l-13,.1,0,4.66-13.65.09ZM23.4,87.55l.09,13.21,4.91-.05-.08-13.19Zm23.51,13-.09-13.2-4.86,0,.09,13.21Z"/><path class="cls-2" d="M78.58,102.38,78.67,116,65,116l-.28-43.6L92,72.26a5.21,5.21,0,0,1,5.53,5.38l.13,19.14a5.27,5.27,0,0,1-5.44,5.51ZM78.5,91.47l5.43,0-.05-8.16-5.43,0Z"/><path class="cls-2" d="M120.87,72.06,134.45,72l.3,43.61-13.58.1,0-5.41,2-14-1.11,0-6.31,15,0,4.36-13.58.09-.29-43.62,13.59-.09,0,5.43-1.9,14,1.06,0,6.32-15.06Z"/></g><g class="cls-1"><path class="cls-2" d="M26.74,15.23l11.37-.07,0,4.77L33.78,33.26l5.49,15.56,0,4.79-12,.07L24,38.81H21.85l.09,14.9-12,.09L9.64,15.35l12.05-.09.09,14,2.14,0Z"/><path class="cls-2" d="M66.62,15,72.25,48.6l0,4.78-12,.09-.76-7.75-5.26,0-.72,7.75-12,.07,0-4.77,5.17-33.72ZM58.53,36.11,57.35,24.69H56L55,36.14Z"/><path class="cls-2" d="M87.53,41.29l.08,12-12,.08L75.33,14.9l24-.17a4.6,4.6,0,0,1,4.85,4.76l.11,16.87a4.61,4.61,0,0,1-4.78,4.86Zm-.06-9.61,4.78,0,0-7.17-4.8,0Z"/><path class="cls-2" d="M106.43,24.35l-.07-9.66,26.93-.19,0,4.8-1.89,4.88-5.76.05L125.85,53l-12,.08-.2-28.79Z"/><path class="cls-2" d="M141.13,52.93a4.6,4.6,0,0,1-4.86-4.76l-.18-28.9a4.59,4.59,0,0,1,4.79-4.81l19.17-.14a4.61,4.61,0,0,1,4.87,4.75L165.11,48a4.6,4.6,0,0,1-4.8,4.81Zm7-28.85.13,19.17,4.78,0-.13-19.17Z"/><path class="cls-2" d="M185.3,48.49l-11.49.08A4.6,4.6,0,0,1,169,43.78l-.17-21.22a4.64,4.64,0,0,1,4.82-4.86l11.48-.08,0-3.46,12-.07v3.45l11.48-.07a4.6,4.6,0,0,1,4.87,4.8l.15,21.21a4.62,4.62,0,0,1-4.8,4.86l-11.49.09,0,4.12-12,.08Zm-4.49-21.22.08,11.65,4.35,0-.1-11.65Zm20.74,11.5-.08-11.64-4.28,0,.07,11.64Z"/><path class="cls-2" d="M217.52,52.4l-.25-38.46L243,13.77l0,4.79-1.88,4.89-11.82.09,0,4.28,11.82-.08.07,9.62-11.82.08,0,5.27,13.75-.1,0,9.62Z"/><path class="cls-2" d="M263.18,52.11,263,23.25H261.3L257,52.14l-12.1.08,0-4.77,7-33.74,23-.16L275.17,52Z"/><path class="cls-2" d="M308.27,30.15l.1,16.81a4.62,4.62,0,0,1-4.74,4.87L279.57,52l-.26-38.46,12-.08.07,12,12.05-.08A4.58,4.58,0,0,1,308.27,30.15Zm-12,12.11-.05-7.2-4.77,0,.05,7.19Z"/><path class="cls-2" d="M28.42,99.31l-13,.09A5.23,5.23,0,0,1,9.89,94L9.71,69.89a5.23,5.23,0,0,1,5.46-5.51l13-.09,0-3.93,13.65-.09,0,3.93,13-.09a5.23,5.23,0,0,1,5.52,5.45l.16,24a5.21,5.21,0,0,1-5.45,5.51l-13,.11,0,4.66L28.46,104ZM23.34,75.23l.09,13.21,4.92,0L28.26,75.2Zm23.52,13-.1-13.2H41.91L42,88.31Z"/><path class="cls-2" d="M78.53,90.06l.08,13.58L65,103.72l-.29-43.6,27.22-.18a5.2,5.2,0,0,1,5.53,5.37l.12,19.15A5.27,5.27,0,0,1,92.11,90Zm-.09-10.91,5.43,0L83.82,71,78.4,71Z"/><path class="cls-2" d="M120.81,59.74l13.59-.09.29,43.61-13.58.09,0-5.41,2-14-1.12,0L115.6,99l0,4.36-13.59.09-.29-43.62,13.59-.09,0,5.43-1.9,14h1.06l6.31-15.07Z"/></g><g class="cls-1"><path class="cls-2" d="M26.9,50.21l11.37-.06,0,4.77L33.94,68.24l5.49,15.57,0,4.79-12,.07L24.14,73.79l-2.14,0,.1,14.89-12,.09L9.8,50.33l12-.09.1,14,2.15,0Z"/><path class="cls-2" d="M66.78,49.93l5.63,33.66,0,4.78-12,.08-.76-7.75-5.27,0-.72,7.75-12,.07,0-4.77L46.8,50.08ZM58.69,71.09,57.51,59.67H56.2l-1,11.45Z"/><path class="cls-2" d="M87.7,76.28l.07,12-12,.08-.25-38.46,24-.17a4.61,4.61,0,0,1,4.86,4.75l.1,16.87a4.62,4.62,0,0,1-4.78,4.87Zm-.07-9.61,4.78,0,0-7.18-4.79,0Z"/><path class="cls-2" d="M106.59,59.34l-.07-9.67,26.93-.18,0,4.8-1.89,4.88-5.76,0L126,88l-12,.08-.2-28.79Z"/><path class="cls-2" d="M141.3,87.91a4.6,4.6,0,0,1-4.87-4.76l-.18-28.89A4.6,4.6,0,0,1,141,49.44l19.17-.13a4.6,4.6,0,0,1,4.87,4.74L165.27,83a4.58,4.58,0,0,1-4.79,4.8Zm7-28.85.13,19.18,4.78,0L153.08,59Z"/><path class="cls-2" d="M185.46,83.48,174,83.55a4.59,4.59,0,0,1-4.86-4.79L169,57.54a4.63,4.63,0,0,1,4.82-4.86l11.47-.08,0-3.46,12-.07v3.46l11.48-.08a4.6,4.6,0,0,1,4.87,4.8l.15,21.22a4.61,4.61,0,0,1-4.8,4.85l-11.49.1,0,4.11-12,.08ZM181,62.26l.08,11.64,4.35,0-.1-11.64Zm20.74,11.5-.08-11.64-4.28,0,.07,11.64Z"/><path class="cls-2" d="M217.67,87.39l-.24-38.47,25.71-.16,0,4.78-1.89,4.9-11.82.08,0,4.28,11.82-.07.07,9.61-11.82.08,0,5.27,13.75-.09.06,9.62Z"/><path class="cls-2" d="M263.34,87.1l-.17-28.87h-1.71l-4.31,28.89L245,87.21l0-4.78,7-33.73,23-.16L275.33,87Z"/><path class="cls-2" d="M308.43,65.14l.1,16.81a4.61,4.61,0,0,1-4.73,4.86L279.73,87l-.26-38.45,12-.08.08,12,12-.07A4.57,4.57,0,0,1,308.43,65.14Zm-12,12.1-.05-7.2-4.77,0,.05,7.2Z"/><path class="cls-2" d="M28.58,134.29l-13,.09a5.22,5.22,0,0,1-5.51-5.45l-.18-24.05a5.24,5.24,0,0,1,5.46-5.52l13-.09,0-3.92L42,95.25l0,3.94,13-.09a5.22,5.22,0,0,1,5.51,5.45l.16,24a5.21,5.21,0,0,1-5.45,5.51l-13,.1,0,4.66L28.62,139ZM23.5,110.21l.09,13.21,4.92,0-.09-13.19ZM47,123.27l-.1-13.21-4.85,0,.08,13.21Z"/><path class="cls-2" d="M78.69,125l.08,13.59-13.64.08L64.84,95.1l27.22-.17a5.2,5.2,0,0,1,5.53,5.37l.12,19.13A5.26,5.26,0,0,1,92.27,125Zm-.09-10.9,5.44,0L84,105.94l-5.44,0Z"/><path class="cls-2" d="M121,94.73l13.59-.09.29,43.6-13.57.1,0-5.42,2-14-1.12,0-6.31,15,0,4.36-13.58.09-.3-43.61,13.59-.09,0,5.42-1.9,14h1.05L121,99.08Z"/></g></svg>