<svg id="Layer_1" data-name="Layer 1" xmlns="http://www.w3.org/2000/svg" viewBox="0 0 521.59 175"><defs><style>.cls-1{opacity:0.3;}.cls-2{fill:#facdd2;}</style></defs><title>pinkText</title><g class="cls-1"><path class="cls-2" d="M39.72,18.45l19.06-.1.06,8L51.53,48.67l9.19,26.09.06,8-20.07.13L35.1,58H31.52l.15,25-20.15.14-.45-64.45,20.18-.16.16,23.42,3.6,0Z"/><path class="cls-2" d="M106.55,18,116,74.39l0,8-20.17.14-1.28-13-8.82.07-1.2,13-20.1.12-.06-8,8.67-56.51ZM93,53.45,91,34.31l-2.21,0L87.1,53.51Z"/><path class="cls-2" d="M141.61,62.15l.12,20.09-20.16.13-.42-64.46,40.24-.28a7.71,7.71,0,0,1,8.14,8l.18,28.27a7.74,7.74,0,0,1-8,8.15ZM141.5,46l8-.08-.08-12-8,0Z"/><path class="cls-2" d="M173.28,33.75l-.13-16.19,45.13-.32.06,8-3.17,8.18-9.65.08.31,48.25-20.16.14-.33-48.25Z"/><path class="cls-2" d="M231.44,81.64a7.72,7.72,0,0,1-8.16-8L223,25.23a7.7,7.7,0,0,1,8-8.06l32.14-.24a7.74,7.74,0,0,1,8.17,8l.32,48.45a7.71,7.71,0,0,1-8.05,8.07Zm11.74-48.35.21,32.14,8-.05-.2-32.14Z"/><path class="cls-2" d="M305.45,74.21l-19.25.12a7.69,7.69,0,0,1-8.15-8l-.27-35.56a7.76,7.76,0,0,1,8.08-8.16l19.22-.13,0-5.79,20.16-.13,0,5.8,19.24-.13a7.71,7.71,0,0,1,8.16,8.05l.25,35.55a7.73,7.73,0,0,1-8,8.14l-19.26.16,0,6.89-20.16.14Zm-7.53-35.57.14,19.52,7.28-.06-.15-19.52Zm34.76,19.28-.12-19.52-7.19.06L325.51,58Z"/><path class="cls-2" d="M359.44,80.77,359,16.3l43.1-.28.06,8L399,32.25l-19.81.13,0,7.18,19.82-.13.1,16.12-19.8.13.06,8.84,23.05-.16.08,16.12Z"/><path class="cls-2" d="M436,80.26l-.3-48.37h-2.86l-7.23,48.42-20.27.14-.06-8L417,15.92l38.61-.27.43,64.47Z"/><path class="cls-2" d="M511.54,43.47l.18,28.17a7.74,7.74,0,0,1-8,8.15l-40.32.27L463,15.62l20.18-.14.13,20.15,20.19-.12A7.67,7.67,0,0,1,511.54,43.47Zm-20,20.28-.08-12-8,.06.08,12.06Z"/><path class="cls-2" d="M42.55,159.37l-21.83.15a8.78,8.78,0,0,1-9.25-9.13l-.29-40.32a8.77,8.77,0,0,1,9.15-9.24l21.84-.15-.08-6.59L65,93.94l0,6.6,21.83-.16a8.76,8.76,0,0,1,9.24,9.14l.27,40.29A8.72,8.72,0,0,1,87.22,159l-21.82.17.07,7.82-22.87.14ZM34,119l.16,22.14,8.23-.08L42.27,119Zm39.42,21.87-.16-22.12-8.14,0,.15,22.14Z"/><path class="cls-2" d="M126.51,143.86l.15,22.76-22.87.14-.48-73.06,45.61-.31c5.45,0,9.22,3.67,9.27,9l.21,32.08a8.83,8.83,0,0,1-9.13,9.23Zm-.14-18.27,9.1-.08-.08-13.66-9.1.05Z"/><path class="cls-2" d="M197.37,93.06l22.78-.15.49,73.07-22.75.17-.08-9.07,3.28-23.44-1.87,0L188.65,158.9l0,7.3-22.76.15-.49-73.09,22.77-.15,0,9.1-3.19,23.4h1.77l10.59-25.25Z"/></g></svg>