<?xml version="1.0" encoding="utf-8"?>
<!-- Generator: Adobe Illustrator 15.1.0, SVG Export Plug-In . SVG Version: 6.00 Build 0)  -->
<!DOCTYPE svg PUBLIC "-//W3C//DTD SVG 1.1//EN" "http://www.w3.org/Graphics/SVG/1.1/DTD/svg11.dtd">
<svg version="1.1" id="Layer_1" xmlns="http://www.w3.org/2000/svg" xmlns:xlink="http://www.w3.org/1999/xlink" x="0px" y="0px"
	 width="151.493px" height="400px" viewBox="0 0 151.493 400" enable-background="new 0 0 151.493 400" xml:space="preserve">
<g>
	<g>
		<path fill="#84D2F6" d="M29.021,35.308l0.063-16.322c0.015-4.059,2.831-6.854,6.895-6.844l30.137,0.107
			c4.066,0.014,6.858,2.837,6.849,6.895l-0.062,16.318l4.921,0.017l-0.062,17.102l-4.92-0.02l-0.061,16.319
			c-0.008,4.062-2.829,6.857-6.896,6.846l-30.131-0.11c-4.067-0.012-6.864-2.836-6.846-6.896l0.055-16.319l-5.852-0.019l0.058-17.1
			L29.021,35.308z M59.261,29.245l-16.556-0.058l-0.016,6.163l16.547,0.063L59.261,29.245z M42.609,58.545l16.556,0.054l0.011-6.087
			l-16.555-0.057L42.609,58.545z"/>
		<path fill="#84D2F6" d="M39.961,98.202l-17.022-0.059l0.066-17.105l54.65,0.199l-0.125,34.122
			c-0.005,4.065-2.835,6.859-6.814,6.852l-23.972-0.089c-3.981-0.02-6.849-2.837-6.84-6.897L39.961,98.202z M53.622,98.253
			l-0.018,6.792l10.227,0.037l0.024-6.8L53.622,98.253z"/>
		<path fill="#84D2F6" d="M77.402,151.589l-0.057,17.021l-54.656-0.195l0.056-17.021l6.797,0.024l17.477,2.636l0.012-1.403
			l-18.789-8.111l-5.465-0.018l0.062-17.019l54.656,0.196l-0.062,17.021l-6.792-0.028l-17.485-2.564l-0.006,1.328l18.793,8.109
			L77.402,151.589z"/>
	</g>
	<g>
		<path fill="#84D2F6" d="M134.4,34.281l-0.053,14.251l-5.994-0.022l-16.636-5.634L92.133,49.55l-5.985-0.028l0.051-15.002
			l18.677-3.996l0.012-2.687l-18.664-0.065l0.052-15.076l48.201,0.164l-0.052,15.085l-17.491-0.067l-0.007,2.689L134.4,34.281z"/>
		<path fill="#84D2F6" d="M134.219,84.271l-42.228,6.602l-5.998-0.025l0.059-15.074l9.715-0.867l0.02-6.61l-9.714-0.997
			l0.064-15.003l5.984,0.012l42.186,6.899L134.219,84.271z M107.822,73.852l14.316-1.327l0.001-1.658l-14.304-1.429L107.822,73.852z
			"/>
		<path fill="#84D2F6" d="M100.941,110.116l-15.01-0.055l0.049-15.077l48.204,0.173l-0.113,30.09
			c-0.012,3.578-2.504,6.054-6.017,6.029l-21.131-0.066c-3.511-0.017-6.057-2.505-6.039-6.082L100.941,110.116z M112.99,110.16
			l-0.021,5.991l9.014,0.029l0.03-5.986L112.99,110.16z"/>
		<path fill="#84D2F6" d="M121.915,134.03l12.128,0.033l-0.132,33.738l-5.988-0.02l-6.11-2.432l0.021-7.229l-36.081-0.135
			l0.051-15.071l36.084,0.136L121.915,134.03z"/>
		<path fill="#84D2F6" d="M85.684,177.136c0.008-3.58,2.5-6.053,6.011-6.033l36.218,0.131c3.514,0.008,5.983,2.5,5.969,6.072
			l-0.08,24.041c-0.016,3.566-2.502,6.051-6.021,6.033l-36.213-0.129c-3.511-0.012-5.99-2.502-5.971-6.08L85.684,177.136z
			 M121.734,186.294l-24.031-0.092l-0.021,5.988l24.023,0.082L121.734,186.294z"/>
		<path fill="#84D2F6" d="M90.656,232.524l0.052-14.389c0.015-3.586,2.501-6.053,6.076-6.041l26.571,0.096
			c3.597,0.01,6.062,2.5,6.042,6.076l-0.049,14.393l4.34,0.018l-0.056,15.086l-4.333-0.023l-0.063,14.391
			c-0.009,3.586-2.489,6.057-6.08,6.037l-26.577-0.094c-3.572-0.016-6.052-2.5-6.03-6.078l0.047-14.393l-5.165-0.018l0.055-15.078
			L90.656,232.524z M117.318,227.175l-14.601-0.051l-0.019,5.439l14.6,0.055L117.318,227.175z M102.625,253.019l14.601,0.053
			l0.021-5.373l-14.604-0.047L102.625,253.019z"/>
		<path fill="#84D2F6" d="M85.34,272.86l48.197,0.174l-0.115,32.223l-5.992-0.023l-6.123-2.428l0.065-14.807l-5.379-0.016
			l-0.046,14.799l-12.057-0.043l0.049-14.805l-6.603-0.025l-0.055,17.217l-12.06-0.045L85.34,272.86z"/>
		<path fill="#84D2F6" d="M85.135,330.083l36.152,0.135l0.017-2.131l-36.135-5.775l0.047-15.158l5.99,0.025l42.177,9.238
			l-0.098,28.859l-48.203-0.18L85.135,330.083z"/>
		<path fill="#84D2F6" d="M112.061,386.858l-21.069-0.078c-3.515-0.014-6.053-2.502-6.042-6.016l0.11-30.154l48.199,0.176
			l-0.052,15.082l-15.083-0.055l-0.059,15.08C118.061,384.403,115.577,386.862,112.061,386.858z M97.039,371.724l9.021,0.027
			l0.016-5.984l-9.018-0.033L97.039,371.724z"/>
	</g>
</g>
</svg>
