<?xml version="1.0" encoding="utf-8"?>
<!-- Generator: Adobe Illustrator 15.1.0, SVG Export Plug-In . SVG Version: 6.00 Build 0)  -->
<!DOCTYPE svg PUBLIC "-//W3C//DTD SVG 1.1//EN" "http://www.w3.org/Graphics/SVG/1.1/DTD/svg11.dtd">
<svg version="1.1" id="Layer_1" xmlns="http://www.w3.org/2000/svg" xmlns:xlink="http://www.w3.org/1999/xlink" x="0px" y="0px"
	 width="400px" height="291.346px" viewBox="0 0 400 291.346" enable-background="new 0 0 400 291.346" xml:space="preserve">
<g>
	<g>
		<path fill="#f9f4cd" d="M44.888,87.009L42.4,86.997l0.027,49.086l-31.253,0.038l-0.028-12.73L21.638,33.82l35.662-0.008
			l7.73,40.328l2.208-0.001l7.714-40.335l35.796-0.02l10.434,89.563l-0.005,12.723l-31.122,0.018l-0.017-49.105l-2.639,0.021
			l-7.868,49.09l-26.723,0.006L44.888,87.009z"/>
		<path fill="#f9f4cd" d="M205.326,78.459l0.024,44.72c-0.014,7.435-5.268,12.842-12.711,12.839l-62.702,0.042l-0.018-102.279
			l31.967-0.008l0.042,31.996l30.682-0.015C200.061,65.752,205.321,70.995,205.326,78.459z M173.472,110.469l-0.019-19.14h-11.528
			l0.005,19.137L173.472,110.469z M246.208,33.737l0.059,102.262l-31.998,0.003L214.211,33.75L246.208,33.737z"/>
	</g>
	<g>
		<path fill="#f9f4cd" d="M54.51,240.988l-30.527-0.037c-7.593-0.018-12.85-5.293-12.836-12.871l0.107-56.402
			c0.024-7.619,5.293-12.866,12.893-12.856l30.506,0.069l0.015-9.207l32.013,0.068l0.004,9.208L117.208,159
			c7.589-0.005,12.835,5.282,12.839,12.904l-0.112,56.386c0.002,7.577-5.284,12.833-12.899,12.829l-30.5-0.051l-0.058,10.963
			l-31.969-0.047L54.51,240.988z M43.088,184.417l-0.07,31.001l11.526,0.023l0.099-30.998L43.088,184.417z M97.97,215.525
			l0.061-30.995l-11.412,0.003L86.561,215.5L97.97,215.525z"/>
		<path fill="#f9f4cd" d="M204.904,149.97l14.151,89.58l-0.01,12.716l-32.012-0.078l-1.867-20.586l-14.04-0.051l-2.084,20.613
			l-31.833-0.057l0.021-12.714l14.468-89.522L204.904,149.97z M182.86,206.024l-2.85-30.406l-3.517-0.024l-2.98,30.41
			L182.86,206.024z"/>
		<path fill="#f9f4cd" d="M272.623,187.19l0.05-37.116l31.845,0.062l-0.166,102.278l-31.852-0.059l0.065-39.577l-12.854-0.046
			l-0.063,39.592l-31.838-0.019l0.148-102.325l31.874,0.076l-0.093,37.102L272.623,187.19z"/>
		<path fill="#f9f4cd" d="M361.657,150.25l30.255,0.021l-0.037,12.742l-11.896,35.332l14.256,41.513l-0.031,12.725l-31.856-0.045
			l-8.523-39.623l-5.724-0.021l-0.058,39.606l-32.002-0.072l0.164-102.256l32.001,0.053l-0.039,37.095l5.694,0.026L361.657,150.25z"
			/>
	</g>
</g>
</svg>
