<svg xmlns="http://www.w3.org/2000/svg" viewBox="0 0 480.68 321.58"><defs><style>.cls-1{isolation:isolate;}.cls-2{opacity:0.5;mix-blend-mode:darken;}.cls-3{fill:#facdd2;}</style></defs><title>weFunktxt-pink</title><g class="cls-1"><g id="Layer_1" data-name="Layer 1"><g class="cls-2"><path class="cls-3" d="M167.31,168h-2.14l0,42.54H138.05l-.06-11,9.25-77.61,30.89,0,6.67,35h1.9l6.73-34.94,31,0,8.91,77.64,0,11-27,0,0-42.54h-2.3l-6.85,42.53-23.19,0Z"/><path class="cls-3" d="M306.39,160.71v38.78c0,6.44-4.58,11.12-11.05,11.13L241,210.57l0-88.67,27.78,0,0,27.76h26.56C301.85,149.69,306.41,154.23,306.39,160.71Zm-27.65,27.72v-16.6h-10l0,16.57ZM341.87,122l-.06,88.63H314.07l.07-88.64Z"/><path class="cls-3" d="M175.84,305.19l-26.43.15c-6.61,0-11.19-4.51-11.22-11.1l-.2-48.88c0-6.61,4.51-11.18,11.1-11.22l26.43-.09,0-8,27.75-.11.08,8,26.47-.14c6.57,0,11.14,4.5,11.18,11.11l.19,48.87c0,6.57-4.49,11.17-11.09,11.21l-26.46.11,0,9.51-27.72.16Zm-10.21-48.94.11,26.87,10-.05-.08-26.88Zm47.77,26.64L213.27,256l-9.91.07.13,26.85Z"/><path class="cls-3" d="M305.71,225.5l12.73,77.57.07,11-27.75.11-1.71-17.83-12.18,0-1.7,17.86-27.56.15-.07-11,12-77.64Zm-18.79,48.7-2.62-26.35-3.06,0-2.43,26.36Z"/><path class="cls-3" d="M364.6,257.38l-.16-32.13,27.61-.15.38,88.65-27.59.13-.14-34.31-11.11,0,.11,34.3-27.56.16-.43-88.68,27.61-.1.18,32.17Z"/><path class="cls-3" d="M441.61,224.89l26.21-.12,0,11-10.09,30.7,12.6,35.92v11l-27.6.14-7.64-34.31h-4.93l.16,34.33-27.74.13-.42-88.66,27.76-.12.13,32.16,4.95,0Z"/></g><g class="cls-2"><path class="cls-3" d="M167.31,93.62l-2.14,0,0,42.54H138.05L138,125.1l9.25-77.61,30.89,0,6.67,35h1.9l6.73-34.93,31,0,8.91,77.63,0,11-27,0,0-42.54h-2.3l-6.85,42.53-23.19,0Z"/><path class="cls-3" d="M306.39,86.36v38.79c0,6.43-4.58,11.11-11.05,11.12L241,136.22l0-88.67,27.78,0,0,27.75h26.56C301.85,75.34,306.41,79.88,306.39,86.36Zm-27.65,27.72V97.48h-10l0,16.58Zm63.13-66.44-.06,88.63H314.07l.07-88.64Z"/><path class="cls-3" d="M175.84,230.84l-26.43.15c-6.61,0-11.19-4.5-11.22-11.1L138,171c0-6.61,4.51-11.17,11.1-11.22l26.43-.09,0-8,27.75-.1.08,8,26.47-.13c6.57-.05,11.14,4.49,11.18,11.11l.19,48.86c0,6.58-4.49,11.17-11.09,11.22l-26.46.1,0,9.51-27.72.16Zm-10.21-48.93.11,26.86,10,0-.08-26.89Zm47.77,26.64-.13-26.87-9.91.06.13,26.85Z"/><path class="cls-3" d="M305.71,151.16l12.73,77.56.07,11-27.75.1L289.05,222l-12.18,0-1.7,17.86-27.56.15-.07-11,12-77.65Zm-18.79,48.69L284.3,173.5l-3.06,0-2.43,26.35Z"/><path class="cls-3" d="M364.6,183l-.16-32.14,27.61-.15.38,88.66-27.59.12-.14-34.31-11.11.05.11,34.29-27.56.16L325.71,151l27.61-.1.18,32.17Z"/><path class="cls-3" d="M441.61,150.54l26.21-.12,0,11-10.09,30.7,12.6,35.92v11l-27.6.15-7.64-34.32h-4.93l.16,34.33-27.74.13-.42-88.66,27.76-.11.13,32.16,4.95,0Z"/></g><g class="cls-2"><path class="cls-3" d="M44.49,57.49H42.35l0,42.54H15.22l-.05-11,9.24-77.62,30.9,0,6.67,35h1.9L70.6,11.41l31,0,8.92,77.63,0,11-27,0,0-42.53h-2.3L74.5,100.06l-23.19,0Z"/><path class="cls-3" d="M183.56,50.24V89c0,6.44-4.58,11.11-11.06,11.12l-54.32,0,0-88.67,27.78,0,0,27.75h26.57C179,39.21,183.59,43.75,183.56,50.24ZM155.91,78V61.35h-10l0,16.57ZM219,11.52l0,88.62H191.24l.08-88.65Z"/><path class="cls-3" d="M53,194.72l-26.43.14c-6.62,0-11.2-4.5-11.22-11.1l-.2-48.88c0-6.61,4.5-11.17,11.1-11.21l26.43-.09,0-8,27.75-.11.08,8,26.46-.14c6.58,0,11.14,4.5,11.18,11.11l.2,48.86c0,6.58-4.5,11.18-11.1,11.22l-26.46.11,0,9.5-27.72.16ZM42.8,145.78l.11,26.86,10,0-.08-26.88Zm47.78,26.64-.14-26.87-9.9.06.13,26.85Z"/><path class="cls-3" d="M182.89,115l12.73,77.56.06,11-27.74.1-1.72-17.82-12.18,0-1.69,17.87-27.57.15-.06-11,12-77.65Zm-18.8,48.69-2.62-26.34-3.05,0L156,163.76Z"/><path class="cls-3" d="M241.78,146.91l-.17-32.14,27.62-.15.37,88.66-27.58.13-.15-34.32-11.11,0,.12,34.3-27.56.15-.44-88.68,27.62-.1.18,32.18Z"/><path class="cls-3" d="M318.78,114.42l26.22-.13,0,11L334.92,156l12.6,35.92v11l-27.6.14-7.64-34.32-4.94,0,.16,34.32-27.74.13-.41-88.65,27.76-.12.12,32.16,5,0Z"/></g></g></g></svg>